<svg width="134" height="40" viewBox="0 0 134 40" fill="none" xmlns="http://www.w3.org/2000/svg">
<g clip-path="url(#clip0_1603_4366)">
<path d="M21.14 11.615V21.935C19.68 23.885 17.93 25.635 15.98 27.095V11.615C15.98 10.185 17.14 9.03497 18.56 9.03497C19.99 9.03497 21.14 10.195 21.14 11.615Z" fill="#4054E7"/>
<path d="M21.14 11.615V21.935C19.68 23.885 17.93 25.635 15.98 27.095V11.615C15.98 10.185 17.14 9.03497 18.56 9.03497C19.99 9.03497 21.14 10.195 21.14 11.615Z" fill="#4054E7"/>
<path d="M21.14 11.615V21.935C19.68 23.885 17.93 25.635 15.98 27.095V11.615C15.98 10.185 17.14 9.03497 18.56 9.03497C19.99 9.03497 21.14 10.195 21.14 11.615Z" fill="#4054E7"/>
<path d="M21.79 3.22499C21.79 4.11499 21.43 4.92499 20.84 5.50499L18.56 7.785L17.22 6.44499L16.28 5.50499C15.69 4.91499 15.33 4.11499 15.33 3.22499C15.33 1.44499 16.78 -0.00500488 18.56 -0.00500488C20.34 -0.00500488 21.79 1.44499 21.79 3.22499Z" fill="#4054E7"/>
<path d="M21.14 11.615V21.935C19.68 23.885 17.93 25.635 15.98 27.095V11.615C15.98 10.185 17.14 9.03497 18.56 9.03497C19.99 9.03497 21.14 10.195 21.14 11.615Z" fill="#4054E7"/>
<path d="M13.4 14.195V19.355H10.82C7.97 19.355 5.66 21.665 5.66 24.515V31.745C4 32.085 2.27 32.265 0.5 32.265V9.03502C0.5 7.60502 1.65 6.45502 3.08 6.45502C3.8 6.45502 4.44 6.74502 4.91 7.20502C5.37 7.67502 5.66 8.32502 5.66 9.03502V21.935C5.66 17.655 9.12 14.195 13.4 14.195Z" fill="#4054E7"/>
<path d="M21.14 11.615V21.935C19.68 23.885 17.93 25.635 15.98 27.095V11.615C15.98 10.185 17.14 9.03497 18.56 9.03497C19.99 9.03497 21.14 10.195 21.14 11.615Z" fill="#4054E7"/>
<path d="M31.35 6.45502C32.88 6.45502 34.05 7.77502 33.92 9.29502C33.12 18.875 28.29 27.305 21.14 32.905C19.53 34.165 17.8 35.275 15.98 36.225C12.81 37.885 9.33 39.045 5.66 39.615C3.98 39.875 2.25 40.005 0.5 40.005V34.845C2.26 34.845 3.99 34.685 5.66 34.375C9.41 33.695 12.91 32.265 15.98 30.255C17.87 29.025 19.61 27.575 21.14 25.935C25.43 21.395 28.23 15.445 28.78 8.85502C28.89 7.50502 30 6.45502 31.35 6.45502Z" fill="#4054E7"/>
<path d="M57.63 31.995L53.84 27.035H44.82V31.995H37.92V21.535H56C57.64 21.535 58.54 20.965 58.54 19.655C58.54 18.345 57.64 17.835 56 17.835H37.95L42.46 12.005H55.13C59.64 12.005 65.71 13.345 65.71 19.265C65.71 22.255 63.95 24.885 60.84 25.625C61.38 25.985 62.72 27.175 65.44 30.345L66.87 31.985H57.64L57.63 31.995Z" fill="#4054E7"/>
<path d="M69.22 31.995V15.455C69.22 13.545 70.76 12.005 72.67 12.005C74.58 12.005 76.12 13.545 76.12 15.455V31.995H69.22Z" fill="#4054E7"/>
<path d="M80.04 31.995V23.005C80.04 21.095 81.59 19.535 83.51 19.535C85.42 19.535 86.98 21.085 86.98 23.005V26.265H93.67C96.81 26.265 99.05 25.095 99.05 21.815C99.05 19.095 96.69 17.845 93.67 17.845H80.05L84.44 12.015H93.67C100.78 12.015 105.92 16.045 105.92 21.815C105.92 27.585 100.72 32.005 93.67 32.005H80.05L80.04 31.995Z" fill="#4054E7"/>
<path d="M115.35 31.995V25.545L103.25 12.015H112.12L116.63 17.485C117.44 18.445 118.48 19.755 118.87 20.475C119.29 19.725 120.24 18.445 121.02 17.485L125.32 12.015H133.98L122.27 25.575V31.995H115.34H115.35Z" fill="#4054E7"/>
</g>
<defs>
<clipPath id="clip0_1603_4366">
<rect width="134" height="40" fill="white"/>
</clipPath>
</defs>
</svg>
