<svg width="127" height="41" viewBox="0 0 127 41" fill="none" xmlns="http://www.w3.org/2000/svg">
<g clip-path="url(#clip0_1603_4436)">
<path d="M21.14 12.115V22.435C19.68 24.385 17.93 26.135 15.98 27.595V12.115C15.98 10.685 17.14 9.53497 18.56 9.53497C19.99 9.53497 21.14 10.695 21.14 12.115Z" fill="#4054E7"/>
<path d="M21.14 12.115V22.435C19.68 24.385 17.93 26.135 15.98 27.595V12.115C15.98 10.685 17.14 9.53497 18.56 9.53497C19.99 9.53497 21.14 10.695 21.14 12.115Z" fill="#4054E7"/>
<path d="M21.14 12.115V22.435C19.68 24.385 17.93 26.135 15.98 27.595V12.115C15.98 10.685 17.14 9.53497 18.56 9.53497C19.99 9.53497 21.14 10.695 21.14 12.115Z" fill="#4054E7"/>
<path d="M21.79 3.72499C21.79 4.61499 21.43 5.42499 20.84 6.00499L18.56 8.28499L17.22 6.94499L16.28 6.00499C15.69 5.41499 15.33 4.61499 15.33 3.72499C15.33 1.94499 16.78 0.494995 18.56 0.494995C20.34 0.494995 21.79 1.94499 21.79 3.72499Z" fill="#4054E7"/>
<path d="M21.14 12.115V22.435C19.68 24.385 17.93 26.135 15.98 27.595V12.115C15.98 10.685 17.14 9.53497 18.56 9.53497C19.99 9.53497 21.14 10.695 21.14 12.115Z" fill="#4054E7"/>
<path d="M13.4 14.695V19.855H10.82C7.97 19.855 5.66 22.165 5.66 25.015V32.245C4 32.585 2.27 32.765 0.5 32.765V9.53496C0.5 8.10496 1.65 6.95496 3.08 6.95496C3.8 6.95496 4.44 7.24496 4.91 7.70496C5.37 8.17496 5.66 8.82496 5.66 9.53496V22.435C5.66 18.155 9.12 14.695 13.4 14.695Z" fill="#4054E7"/>
<path d="M21.14 12.115V22.435C19.68 24.385 17.93 26.135 15.98 27.595V12.115C15.98 10.685 17.14 9.53497 18.56 9.53497C19.99 9.53497 21.14 10.695 21.14 12.115Z" fill="#4054E7"/>
<path d="M31.35 6.94501C32.88 6.94501 34.05 8.265 33.92 9.785C33.12 19.365 28.29 27.795 21.14 33.395C19.53 34.655 17.8 35.765 15.98 36.715C12.81 38.375 9.33 39.535 5.66 40.105C3.98 40.365 2.25 40.495 0.5 40.495V35.335C2.26 35.335 3.99 35.175 5.66 34.865C9.41 34.185 12.91 32.755 15.98 30.745C17.87 29.515 19.61 28.065 21.14 26.425C25.43 21.885 28.23 15.935 28.78 9.34502C28.89 7.99502 30 6.94501 31.35 6.94501Z" fill="#4054E7"/>
<path d="M53.69 22.495L50.65 18.525H43.43V22.495H37.91V14.125H52.38C53.7 14.125 54.41 13.675 54.41 12.615C54.41 11.555 53.69 11.155 52.38 11.155H37.93L41.54 6.495H51.68C55.29 6.495 60.15 7.57499 60.15 12.305C60.15 14.695 58.74 16.805 56.25 17.395C56.68 17.685 57.76 18.635 59.93 21.175L61.08 22.495H53.69Z" fill="#4054E7"/>
<path d="M62.97 22.495V9.25498C62.97 7.72498 64.21 6.495 65.73 6.495C67.26 6.495 68.49 7.73498 68.49 9.25498V22.495H62.97Z" fill="#4054E7"/>
<path d="M71.63 22.495V15.295C71.63 13.765 72.87 12.525 74.4 12.525C75.93 12.525 77.17 13.765 77.17 15.295V17.905H82.53C85.04 17.905 86.83 16.975 86.83 14.345C86.83 12.165 84.94 11.165 82.53 11.165H71.62L75.14 6.505H82.53C88.22 6.505 92.34 9.73502 92.34 14.345C92.34 18.955 88.18 22.505 82.53 22.505H71.62L71.63 22.495Z" fill="#4054E7"/>
<path d="M99.9 22.495V17.325L90.21 6.495H97.31L100.92 10.875C101.57 11.645 102.4 12.695 102.71 13.265C103.04 12.665 103.81 11.635 104.43 10.875L107.87 6.495H114.81L105.43 17.355V22.495H99.88H99.9Z" fill="#4054E7"/>
<path d="M49.47 31.795C49.47 32.395 49.4 32.935 49.27 33.395C49.14 33.865 48.95 34.265 48.71 34.615C48.47 34.965 48.18 35.255 47.85 35.495C47.52 35.735 47.14 35.935 46.73 36.075C46.32 36.225 45.88 36.325 45.4 36.395C44.93 36.465 44.43 36.495 43.92 36.495H37.96V27.105H43.91C44.43 27.105 44.92 27.135 45.39 27.205C45.86 27.275 46.31 27.375 46.72 27.525C47.13 27.675 47.51 27.865 47.84 28.105C48.18 28.345 48.47 28.635 48.71 28.985C48.95 29.335 49.13 29.745 49.27 30.205C49.4 30.665 49.47 31.205 49.47 31.795ZM46.91 31.795C46.91 31.345 46.85 30.955 46.74 30.615C46.62 30.285 46.44 30.005 46.18 29.795C45.92 29.575 45.59 29.415 45.17 29.305C44.76 29.195 44.25 29.145 43.65 29.145H40.5V34.445H43.65C44.25 34.445 44.75 34.395 45.17 34.285C45.59 34.175 45.92 34.015 46.18 33.795C46.44 33.575 46.62 33.295 46.74 32.965C46.86 32.635 46.91 32.245 46.91 31.785V31.795Z" fill="#4054E7"/>
<path d="M51.57 36.495V27.105H61.08V29.105H54.18V30.655H60.73V32.655H54.18V34.485H61.18V36.485H51.58L51.57 36.495Z" fill="#4054E7"/>
<path d="M63.41 36.495V27.105H65.95V34.435H72.81V36.495H63.42H63.41Z" fill="#4054E7"/>
<path d="M74.63 36.495V27.105H77.17V36.495H74.63Z" fill="#4054E7"/>
<path d="M86.19 36.495H83.24L78.49 27.105H81.32L84.74 34.175L88.15 27.105H90.98L86.19 36.495Z" fill="#4054E7"/>
<path d="M92.31 36.495V27.105H101.82V29.105H94.92V30.655H101.47V32.655H94.92V34.485H101.92V36.485H92.32L92.31 36.495Z" fill="#4054E7"/>
<path d="M106.69 36.495H104.15V27.105H110.51C111.19 27.105 111.77 27.175 112.25 27.315C112.73 27.455 113.11 27.655 113.41 27.915C113.71 28.175 113.92 28.485 114.06 28.855C114.19 29.225 114.26 29.635 114.26 30.085C114.26 30.485 114.2 30.825 114.09 31.125C113.98 31.425 113.83 31.675 113.64 31.885C113.45 32.095 113.23 32.275 112.98 32.425C112.73 32.575 112.47 32.695 112.19 32.785L115.27 36.495H112.3L109.46 33.035H106.69V36.495ZM111.7 30.075C111.7 29.895 111.68 29.735 111.63 29.615C111.58 29.495 111.5 29.385 111.38 29.305C111.26 29.225 111.1 29.165 110.91 29.135C110.72 29.105 110.46 29.085 110.17 29.085H106.7V31.095H110.17C110.47 31.095 110.71 31.075 110.91 31.045C111.11 31.005 111.27 30.955 111.38 30.875C111.5 30.795 111.58 30.695 111.63 30.565C111.68 30.435 111.7 30.285 111.7 30.105V30.075Z" fill="#4054E7"/>
<path d="M122.22 32.665V36.495H119.69V32.665L115.14 27.105H117.98L120.96 30.885L123.93 27.105H126.77L122.22 32.665Z" fill="#4054E7"/>
</g>
<defs>
<clipPath id="clip0_1603_4436">
<rect width="127" height="41" fill="white"/>
</clipPath>
</defs>
</svg>
