<?xml version="1.0" encoding="UTF-8"?>
<svg id="_레이어_2" data-name="레이어 2" xmlns="http://www.w3.org/2000/svg" viewBox="0 0 3409.59 3635.76">
  <defs>
    <style>
      .cls-1 {
        fill-rule: evenodd;
      }

      .cls-1, .cls-2, .cls-3 {
        fill: #ccc;
      }

      .cls-1, .cls-2, .cls-4 {
        stroke: #fff;
        stroke-miterlimit: 10;
        stroke-width: 9px;
      }

      .cls-4 {
        fill: none;
      }
    </style>
  </defs>
  <g id="Layer_1" data-name="Layer 1">
    <g>
      <polygon class="cls-1" points="2525.89 2048.38 2576.17 2039.29 2618.97 2049.78 2619.44 2049.65 2620.27 2050.64 2623.89 2057.04 2621.84 2071.52 2620.68 2088.68 2617.04 2114.46 2611.54 2125.38 2602.65 2137.37 2594.47 2141.8 2590.9 2130.11 2587.74 2114.87 2580.74 2103.44 2573.22 2101.49 2568.73 2114.46 2576.12 2116.17 2580.52 2121.76 2582.63 2129.94 2583.12 2139.37 2580.74 2148.29 2575.2 2150.37 2568.99 2150.93 2564.68 2155.25 2565.47 2160.01 2566.17 2172.34 2568.37 2185.07 2563.33 2193.22 2558.75 2201.38 2563.26 2207.75 2566.88 2211.39 2566.13 2220.4 2555.01 2224.05 2544.55 2230.37 2529.52 2245.27 2516.81 2244.8 2516.61 2245.49 2514.43 2243.6 2499.07 2238.16 2487.28 2226.48 2483.65 2208.09 2471.24 2198.41 2443.42 2183.07 2420.06 2156.33 2406.04 2145.66 2372.74 2140.55 2364.64 2124.15 2378.16 2096.87 2375.87 2070.44 2388.89 2059.89 2402.8 2051.77 2411.12 2051.56 2414.53 2045.03 2409.34 2036.44 2406.37 2027.13 2424.59 2012.98 2447.44 2004.98 2466.16 2002.15 2484.48 2006 2503.54 2014.22 2508.51 2022.4 2508.79 2032.33 2510.13 2041.2 2516.83 2046.03 2525.89 2048.38"/>
      <polygon class="cls-1" points="2231.44 1891.13 2227.36 1889.92 2222.27 1890.37 2222.55 1894.75 2221.83 1900.38 2216.74 1913.72 2216.69 1918.02 2215.07 1924.27 2203 1931.59 2171.77 1923.45 2154.28 1921.69 2146.57 1927.79 2138.86 1941.29 2134.72 1944.82 2129.75 1940.7 2123.1 1936.4 2113.55 1928.65 2107.12 1916.21 2099.24 1908.46 2090.86 1905.19 2087.62 1892.87 2095.11 1882.41 2103.21 1882.36 2111.93 1880.93 2114.22 1874.62 2115.22 1867.96 2110.47 1866.2 2105.33 1865.36 2111.14 1852.24 2120.42 1842.03 2117.01 1811.59 2142.43 1790.46 2176.85 1785.84 2205.4 1783.97 2227.08 1799.89 2233.95 1811.87 2233.67 1817.15 2231.04 1821.6 2231.21 1838.47 2235.57 1845.03 2241.38 1849.98 2242.5 1860.57 2242.78 1871.86 2239.87 1882.41 2231.44 1891.13"/>
      <polygon class="cls-1" points="1352.73 743.63 1367.53 743.45 1380.22 738.87 1391.22 738.71 1395.36 748.63 1393.91 758.8 1386.36 762.62 1378.15 768.08 1378.32 780.4 1382.68 785.3 1373.4 797.97 1368.26 806.87 1354.24 815.22 1338.82 818.8 1322.95 826.79 1316.75 812.54 1303.22 815.67 1289.82 819.86 1280.32 825.31 1270.43 826.93 1247.24 826.14 1231.37 805.26 1215.73 800.54 1204.95 793.43 1202.1 773.87 1191.37 758.57 1178.57 742.89 1186.67 725.46 1201.82 726.43 1219.14 737 1231.99 732.63 1243.44 725.66 1244.34 713.92 1247.47 703.09 1271.71 700.76 1284.17 684.89 1291.77 668.77 1302.56 657.21 1319.43 653.17 1338.87 654.75 1348.15 670.74 1351.72 692.47 1357.36 707.66 1357.7 724.32 1352.73 743.63"/>
      <polygon class="cls-1" points="1712.87 2662.03 1718.5 2663.48 1723.43 2671.29 1727.3 2680.92 1731.87 2697.39 1732.36 2706.98 1730.73 2716.31 1726.81 2725.34 1721.4 2730.9 1715.33 2731.38 1709.26 2728.12 1690.12 2708.61 1687.88 2701.02 1691.13 2688.94 1693.51 2685.78 1703.63 2678.11 1705.43 2674.18 1709.52 2657.49 1701.34 2648.76 1702.31 2643.44 1708.2 2640.71 1714.94 2639.93 1720.74 2642.56 1722.19 2648.71 1719.42 2655.96 1712.87 2662.03"/>
      <polygon class="cls-1" points="1282.27 2296.44 1293.22 2326.7 1271.94 2355.12 1238.58 2349.79 1209.14 2332.1 1194.33 2299.55 1206.01 2288.51 1225.39 2293.65 1239.59 2290.42 1254.39 2285.97 1282.27 2296.44"/>
      <path class="cls-2" d="M913.27,2043.96l-1.98,2.19-4.09,3.33-6.12-1.11-2.33-.11.92,3.65-1.94.89-3.26.54-2.02,2.87-2.99,1.68-1.32,1.57,2.68,1.73.79,1.08-5.67,2.98-1.06,4.22,1.72,4.38,2.38,2.49,3.12-.7,1.76-1.62,4.22-3.27,6.69-7.46,9.94-8.6,2.02-4.95-1.14-3.98-2.33-1.78ZM1764.51,1785.28l-6.93,7.29-6.93,6.35-7.93-4.3-7.88-7.53-19.95,9.01-17.38,10.65-8.66-2.48-5.03-6.3-24.19-7.96-8.1-9.62-9.16-5.41-3.52,4.71-4.36,1.07-5.14-4.71-4.64-5.58-12.8,12.85-13.13,11.55-16.04,4.45-15.92.74-11.68,2.86-31.29-4.11-2.24-5.37,3.8-7.63-3.24-6.67-6.93-1.76-17.94-9.03-24.3-43.84-17.26-15.35-9.05,9.28-7.26,11.32-11.34,2.35-7.65,3.42-7.82,2.73-29.78,5.81-15.14,5.88-15.98,2.99-11.51-17.94,4.8-29.53-19.95-3.99-55.99,17.67-30.39,6.54-25.87,2.83-24.33,30.04h0s31.68-9.8,31.68-9.8l-.97,9.66-10.69,7.67-25.3,10.09-19.93,15.15-11.35,5.82-9.28-2.72-8.71,5.25-26.95,1.59-26.65,3.32-48.99,5.29,2.33,20.14,23.79-3.74,16.13,5.54,4.99,4.36,1.64,15.81.24,11.49,25.84,2.05,26.17,1.71,13.33-.65,39.73-16.08,1.72-1.36,6.38,2.36,5.76,5.02,2.82,4.89-2.37,2.17-7.43,1.28-2.6,3.39-1.23,4.91-3.3,6-4.88,2.55-6.6.54-30.18-1.95-4.93,1.14-4.49,3.69-4.49,6.19-1.45,5.75,5.02,2.55,9.54,7.15,11.74,8.01,10.34,5.14,4.98,3.64,7.22,5.76-.79,7.84-1.85,7.54-2.24,5.42-5.76-9.98-8.62-2.17-12.03-9.29-18.98-2.35-19.39,1.96-3.26,2.84-6.14,3.89-8.31,4.95-2.3,19.89-15.12,21.13-19.91,10.98-16.22,9.47-10.23,11.73-11.05,10.92-12.66,6.31-.44,7.16-1.62,17.89,26.72,16.67,76.7-12.55,8.18,4.71,5.02,11.28,7.04,24.82-7.26-2.43-9.9-12.25-9.65-10.84-10.76,2.77-7.61,11-7.93,6.36-17.18.93-20.09,4.14-17.63,6.33-12.35,17.8-14.65,34.25-9.28,19.41-3.96,15.68,2.64,7.07,7.46,8.49.09-.03,11.17-3.6,52.52-14.68,15.59,4.2-3.13,24.26-3.46,17.84-.78,17.96,13.47,4.54,16.09-4.04,17.15-6.23,18.1-2.71,7.26-5.37,7.82-4.76,9.28-2.7,8.83-4.26,7.15-6.22,4.53-9.39-1.06-6.78-.39-7.08,6.82-5.02,4.97-7.54-.5-8.98.06-8.97,13.58-12.21,18.33,1.8,9-10.7,9.83.7,9.44,4.01,16.54,13.56,25.37,34.41,16.71-.21,1.28-9.46,3.47-8.77,5.31-5.11,3.91-6.82,15.92-.87,10.9,16.63-4.81,19.12,3.3,12.3,11.01,12.45-.73,21.91,13.02,13.88,20.11,2.99,15.53-9.31,16.32-2.7,11.23.16,9.5-2.43,8.21,6.35,9.22,5.39,19.89.36,19.61-2.63,17.94-.14,16.93-2.36,15.76-16.98,19.61-10.94,34.58,12.51,30.84,24.9,11.34-11.6.78-16.35,3.58-17.74,22.57-27.03,3.24-18.2-7.77-5.19-5.53-12.53.95-16.98-5.98-15.64-1.01-8.39-2.01-7.33-13.86-5.87.56-16.72,7.54-15.42,4.64-20.71,6.31-20.05,8.38-15.69,6.82-14.92,1.56-20.47,6.04-17.45,12.35-10.96,11.68-12.22,10.17-22.02,5.31-3.43,7.38.79,13.3-4.08,26.87-14.3,5.25-14.01,19.78-21.25,2.51-42.52-22.13-37.82Z"/>
      <polygon class="cls-1" points="1260.92 3449.58 1265.01 3457.99 1262.5 3460.87 1257.26 3462.39 1253.52 3466.88 1253.79 3470.65 1257.22 3476.63 1257.22 3480.14 1255.37 3483.62 1250.75 3489.7 1249.83 3491.6 1240.08 3502.89 1221.71 3517.57 1216.01 3529.81 1207.88 3544.09 1207.5 3549.82 1203.9 3558.23 1190.57 3559.79 1185.42 3562.5 1171.22 3561.25 1150.49 3577.64 1095.85 3587.69 1077.58 3603.24 1055.2 3608.22 1031.24 3605.82 1003.86 3610.93 981.1 3604.08 929.73 3604.81 913.71 3612.32 904.17 3629.23 895.46 3631.04 886.75 3626.86 874.44 3606.91 858.04 3601.33 842.14 3584.66 836.59 3564.34 846.23 3538.02 855.33 3521.69 860.96 3515.95 879.75 3504.8 895.8 3476.89 910.55 3473.1 917.37 3458.35 942.67 3449.61 997.82 3433.78 1011.63 3421.87 1064.34 3416.34 1100.22 3400.68 1108.81 3403.11 1152.5 3396.06 1177.83 3393.95 1194.59 3396.78 1201 3406.42 1208.96 3412.65 1235.05 3423.02 1242.97 3431.06 1248.29 3450.48 1253.52 3458.07 1256.03 3455.12 1259.46 3452.3 1260.92 3449.58"/>
      <path class="cls-2" d="M1061.1,776.49l-2.87-2.71-2.11-3.33-2.12-2.19-4.43-2.21-3.26-.64-3.04-.17-3.08-1.28-3.12-1.77-3.04-1.19-6.24-6.31-7.66,2.84-3.76,15.27-10.99,5.81-11.92-.29-17.54,1.92-24.5,17.18-4.48-2.33-3.22.98-2.07,5.04,1.44,3.55,5.91,5.64,1.19,3.7-3.44,3.42,5.82,1.47,4.04,1.82,3.34-2.63,2.18-2.88,3.29.43,1.35,3.32-.92,2.4.62,1.4,1.79-.61,1.97-2.16,4.28,2.71,2.26,8.3,2.15.54,4.95-.57,5.31,1.21,23.57-17.82,3.77-6.67,6.8-6.12,12.63-5.53,5.75-2.71,4.18.7,9.45-2.27,1.85-2.47,4.56-3.4,2.94-1.23-1.35-3.57-2.24-4.6ZM1174.55,808.46l-8.72-5.72-5.81-13.36.06-16.09-31.85-30.65-27.73.99-24.62.87-2.64,16.49,1.19,12.48,2.89,6.81,11.12-1.21,1.97-5.93,7.29,1.99-1.16,5.67-4.64,2.38-15.51,4.68-5.27,9.14,1.77,9.77-1.25,12.44,8.88,4.71,9.68,5.26,4.5,7.64-7.16,10.8-5.57,12.36,13.65,10.45,13.2-16.86,28.33,3.63,1.56,4.62,17.04-4.99,4.02-2.98,7.1-5.25,7.71-14.91,5.09-16.78-5.14-8.45Z"/>
      <path class="cls-2" d="M1959.59,2588.1l1.63-2.01-.4-4.66,2.73-1.45h5.81l2.16-3.54-3.04-5.12-8.09-9.06-6.82-1.58-7.26,5.49-3.7,6.06-.66,3.56,3.43,5.15,5.94,4.15,3.17,1.55,5.1,1.45ZM1864.6,2574.81l-18.21-3.05-12.54,2.68-13.29,5.22-10.47,1.85-6.51-11.66-11.57-3.88-4.62-3.22-3.04-6-2.51-11.53-2.2-4.56,12.14-12.71,4.75-8.29.75-8.66-4.18-8.24-7.17-6.41-8.18-2.52-7.13,3.46-8.67,6.79-3.17,4.16-2.55,14.57-3.25,2.2-4.22.78-4.14,3.03-6.2,11.85-1.45,11.58,1.98,11.74,14.91,48.62,1.19,8.35.13,5.76.79,4.87,3.34,5.91,4.93,3.24,8.09,2.78,7.66-.24,3.3-5.78,1.8-13.73,4.8-11.08,7.08-4.9,8.89,4.82,6.07,26.58,5.37,12.74,8.8-1.18,10.03-4.66,8.53,3.75,7.92,4.76,8.31-1.55,2.24-6.69-4.58-13.35,4.31-2.44,3.08-3.37.44-7.76-1.5-13.58,1.58-8.6,2.99-6.99,1.58-6.59-2.77-7.47-3.7-1.39ZM1979.78,2696.64l-2.46-.27-.04-4.06-17.11-9.14-3.65.91-2.16,2.08-.22,3.58-1.45,2.99-.22,3.29,2.38,1.82,2.02.45,2.37,2.38.53,3.4-1.89,4.2.53,2.46,3.21-.7,2.82-2.64,5.76-2.86,4.22-.61,5.1,1.15,3.48-.51,2.33-1.55,5.19-6.42.79-3.5-1.36-1.47-10.16,5.03ZM1870.01,2556.37l-3.17-4.37-3.08-10.94-1.23-7.91-2.68-1.5-2.77-2.63-1.58-4.61-5.19.89-6.33,10.06-3.17,7.16-2.86-1.96-.53-6.06,1.89-7.27,3.78-10.65-2.77-7.3-8.58,2.33-4.93,6.36-4.71,9.01-7.39,9.57-3.7,10.16,4.75,9.38,8.05,4.91,7.83.94,13.37-4.32,24.46,6.46,5.72-1.45-2.99-4.53-2.2-1.74ZM2514.43,2243.6l-15.36-5.44-11.79-11.68-3.63-18.4-12.4-9.68-27.82-15.34-23.35-26.74-14.03-10.67-33.3-5.11-8.1-16.4,13.52-27.29-2.29-26.42-15.14,5.07-15.92-7.51-20.78-5.17-19.56,8.04-6.2,8.02-7.43,6.44-7.82,1.03-7.77,2.88-17.6,13.97-20.17-.58-16.87-8.89-17.66-5.41-20.23,3.62-19.61,2.22-16.93-10.73-13.63-16.66-4.47-36.77-12.46,9.66-13.35,19.05-14.81-3.01-28.94,14.88-15.37-3.09-13.86-10.41-14.64-7.04-15.59-2.61-16.31,2.3-33.36-1.41-8.49-30.73,6.48-15.01.34-15.7-7.21-8.48-8.32-5.16-1.85-5.73-3.02-6.23-11.96-8.47-7.21-13.7-10.28-11.19-13.97-4.72-15.31.14-15.53-1.21-8.77-5.92-7.1-5.96-16.37-1.28-4.41-1.48-4.36-1.98-2.18-5.39-.45-5.27-4.97-4.24-5.03-3.79-10.95-6.38-4.36-14.82-19.78,21.25-5.25,14.01-26.87,14.3-13.3,4.08-7.38-.79-5.31,3.43-10.17,22.02-11.68,12.22-12.35,10.96-6.04,17.45-1.56,20.47-6.82,14.92-8.38,15.69-6.31,20.05-4.64,20.71-7.54,15.42-.56,16.72,13.86,5.87,2.01,7.33,1.01,8.39,5.98,15.64-.95,16.98,5.53,12.53,7.77,5.19-3.24,18.2-22.57,27.03-3.58,17.74-.78,16.35-11.34,11.6-2.9,14.44,11.12,13.12,5.42,16.94,2.29,35.16,7.32,13.15,13.3,9.7,12.07,12.67,4.69,13.97,5.81,12.19,33.69,36.73,7.26,17.9-.06,12.26,1.37,2.93h.02s5.63,1.53,5.63,1.53l8.05,6.66,3.3-3.11,4.27-.48,5.15,1.31,5.76,2.28,14.43-1.29,11.31-10.15,5.81-16.81,1.59-21.27,6.07,4.7,3.43,6.47,5.67,15.84,13.99-8.86,14.65.32,6.73-4.56-9.9-23.37,12.98-1.13,8.58-8.86,6.95-11.82,8.45-10.13-.66,8.09-2.38,6.34-2.77,4.84-1.58,3.65-.88,7.87.88,48.9-.88,4.43-1.36,4.97-.26,5.18,2.51,5.29,4.49,2.44,12.71,1.1,7.79,1.8,6.03-1.1,2.51.64.57,2.55.13,9.66,1.14,3.57,9.9,5.53,25.12-1.13,11.44,1.93-.26-9.76,1.1-10.11,2.99-7.97,5.41-3.27,12.27,1.26,5.98,3.84,11.44,15.4,12.54-.8,8.89-17.17,8.84-8.75,12.27,24.68-12.45,4.83-5.54,3.49,1.1,5.42,7.74,10.78,7,2.79,33.57,3.78-2.68,4.42-4.44.8-10.42.14-.28,10.08,16.24,1.09,12.1-3.64,13.64-17.8,7.52-13.52-7.3-8.58-1.67,6.49-3.74,5.26-4.75,1.58-4.97-4.75,4.05-26.98.7-13.74-.18-4.94-.53-3.44-3.65-5.64-4.88-2.85-2.51-3.11,3.65-6.44,7,2.9,10.56.48,10.56-1.77,6.91-3.87,4.36-8.78-1.1-7.57-3.25-8.51-1.85-11.61-9.15.62-53.94,28.69v-4.49l5.76-5.96,1.06-9.08,2.77-8.35,21.25-5.81,18.52-9.35,10.03-2.01-6.25-8.82-.35-4.65,4.88-2.42,17.91-3.41,8.18.51,29.17,10.3,3.7,3.01,5.19,5.48,1.8,4.25.26,4.41,1.63,3.49,5.76,1.34,10.95-.03,4.75-1.26,4.75-3.17-3.83-1.02-6.69-2.9-4.27-.59,2.55-8.79-1.32-6.13-9.02-12.18-4.62-7.96-2.24-6.13-3.83-17.49-6.86-14.34.13-7.08,6.73-10.61,6.2-5.65,3.17,1.83,5.41,17.39-2.11,4.93,4.49,13.27-2.38,9.33,10.87-4.36,7.39,6,6.69,9.68,8.58,6.72.31-10.22,3.92-6.08,4.62-1.91,2.24,2.39v28.91l8.31-6.42,6.47.75,5.89,11.06,12.58,5.68,5.42-2.59,4.91-18.34,3.62,6.44,2.05,12.13,35.6-.58,13.4,1.55,3.82-15.84,4.69-10.48,3.6.53-.51,12.64.52,13.41,7.47-.52,16.5-29.14,4.9-7.22,2.58,2.32,4.49-8.22,8.21-10.22,7.71-11.76,5.64-39.08,7.71-9.58,10.28-7.46,12.74-5.11,13.69.53,10.62,6.79,3.02,14.52,9.67,13.44,12.35,10,9.78,12.63,10.9,11.12,1.06,2.38.98-1.98,5.19-10.83,9.61-11.6,8.6-18.32,6.12-12.42-.18-3.72-3.05-9.03,3.65-5.43,3.2-6.34.93-12.21,2.55-8.81-2.18-1.88ZM2277.44,2413.16l-6.2.64-5.72,3.25-1.5,4.76,2.86,5.21,1.85,5.48-.66,4.67,1.45,3.38,4.09,4.3,2.64,11.55,1.32,2.87,2.77-.94,3.56-4.89,2.38-13.64.26-16.71-3.7-8.33-5.41-1.61ZM2233.05,2528.27l-5.24,3.62-10.95,3.86,8.54-22.39,2.16-7.86.13-8.67-2.38-6.39-3.3-6.2-2.51-7.76-.26-3.86,3.52-24.49-.18-6.39-2.38-5.48-9.55-3.76-8.31,6.66-3.04,12.03,6.47,12.11-37.88,21.58-7.13-.89.57,10.55,2.55,11.24,5.72,9.85,10.03,6.6v4.1l-10.03-.7-7.26-3.57-7.08-4.64-8.89-3.75-5.54-.11-20.24,4.18-7.04,3-8.23,5.36-7.13,6.97-3.48,7.56,1.67,12.54,6.29,9.49,7.7,8.47,6.16,9.59,8.58-7.05,19.4-8.6,5.54-6.86,7.39,4.5-2.9,11.6-.26,10.26-3.83,7.26-13.46,2.73-3.39,3.45-.31,7.61,2.42,7.58,4.97,3.45,16.76-8.6-2.73,9.64-.44,7.84,2.9,5.83,7.65,3.64-18.48,13.43,11.79-.8,39.15-12.15,8.45-7.44-4.49-5.06-8.89-3.72-6.42-4.93,3.03-8.54,9.37-10.93,1.67-4.98,1.67-9.19,6.16,4.45,10.16,5.36,9.46,3.27,4.14-1.63-1.45-10.21-7-14.9-2.99-8.84,7.35,3.11,4.75-4.61,2.42-8.28.62-7.8-.53-11.1-1.76-1.29ZM2067.46,2573.2l-5.28-5.19-9.44.61-8.32,2.09-5.15,2.12-3.69-1.81-6.36-4.88-8.33-3.39-6.35,1.61-4.35,4.79,1.16,4.33,3.67.19,6.17-1.95,9.74,3.37,5.23,4.14-.98,5.01-5.17,4.12,2.49,2,6.97,1.04,1.49,4.31-1.06,4.32,4.53.17,2.12,5.15,3.92,5.01,8.95-.1,5.52-6.93,2.18-3.97-4.45-3.68-4.44-.87-.15-1.66,2.15-1.31,5.44,2.2,2.35-3.96-1.97-3.16,2.87-5.28-1.43-8.45Z"/>
      <g>
        <path class="cls-3" d="M580.94,655.8l-4.22.67-.66,5.89,2.9,8.45,1.76,3.78,3.12-1.5,5.15-5.11,1.67-7.42-3.78-3.98-5.94-.78ZM921.5,599.07l9.59-8.29,3.56-12.14-5.02-5.68-9.9-1.56-10.65.17-10.12-6.18-8.67-2.23-7.61,2.06-6.64,6.46-6.2,18.87-1.19,2.34,2.16,7.43,5.24-.14,6.07-3.23,4.97-1.95,22.53,4.84,11.88-.78ZM49.36,444.02l-30.01,10.55-13.73-4.91-5.63,24.27,16.45,14.09,22.09,3.09,11.04-8.7-2.95-2.62-6.34-1.14-5.28-2.65-.22-7.2,2.86-1.37,13.77-1.2,10.51,6.36,7.48-5.5.88-10.04-5.94-7.4-15-5.64ZM55.61,541.16l-3.96-.45-2.73,2.17-5.81,6.07-9.11,7.27-1.63,5.38,4.31,5.62,1.76,3.34-.09.89v1.81l1.45-.53,2.77-2.9,3.56-1.28,4.22.36,4-2.2,2.2-5.9,1.67-7.02,2.42-6.13-.75-4.29-4.31-2.23ZM818.12,948.9l-3.87-3.18-3.78-6.44-4.35-3.01-3.96,5.5-3.04,9.17-1.67,11.11-.05,2.43,2.24.77,3.83-2.16,1.45-.44,1.41,3.45,3.52,6.13,5.37,2.46,6.33-.97,4.88-2.07,6.86-7.02,2.24-4.2-4.09-4.53-13.33-7.02ZM1081.38,944.64l-2.86-2.87-10.29-4.31-6.34-3.65-2.24-5.34,1.58-5.89-1.72-.55-7.61,6.69-8.89-4.31-1.19,1.38,3.91,4.51,4,6.97,2.9,10.03-.22,8.12-7.04,8.04,2.46,3.95-.79,4.59-5.9,8.01-.13,3.43,12.54-1.58,27.59-22.01,2.86-6.25-1.32-5.8-1.32-3.15ZM1733.22,761.84l-8.05-6.89-12.85-1.43-13.19-5.02-18.21-2.45-30.4-16.85-13.69-5.6-13.58-8.94-14.92-2.31-14.47,4.58-12.01-10.16.95-11.06,5.7-11.61,2.24-13.44.17-13.85-14.3,4.62-6.42-8.33,15.76-18.54-2.63-12.36-4.36-12.28,3.13-9.31-.17-11.13-1.06-10.53,27.43-20.28,11.12-3.63,6.2-9.55,2.79-27.78-12.8-19.65-10.5-2.14-10-4.62-7.54-20.26-11.96-.6-12.8.85-13.97-10.22-6.65-18.15-2.74-32.29-5.2-16.27-3.63-3.14-4.25.71-2.85,2.77-3.58.51-9.22-6.53-22.57,8-20.73-5.04-8.38-5.11-8.55-7.74-.28-12.96,4.19-12.21,3.07-4.65,2.18-4.46-3.57-3-4.58-1.1-4.36.92-3.8,2.95-7.15,9.3-7.99,8.11-12.29,2.11-10.84-7.39-2.01-6.71-.84-6.8-3.91-2.4-4.13,4.37-1.4,7-.11,22.62-7.04,11.04-19.84-9.41-18.16-16.44-6.37-6.71-6.71.85-5.98-8.7-3.74-11.33-4.92-5.95-5.87-4.71-4.52-10.8-8.05-5.13-19.05-12.13-10.71-5.26-6.67,8.51-7.35,18.22-10.98,27.21-8.91,10.32-20.84,16.19-9.44,9.62-46.18,70.7-21.51,17.19-13.94,5.31-10,1.1-6.51,4.76-2.85,16.33,3.75,58.9h.02s8.18-5.61,8.18-5.61l5.32-.75,4.05,5.1-5.68,10.94-2.46,13.73.62,7.81h0s.44,5.85.44,5.85l5.1,10.71,2.29,10.24-2.68,14.52-9.06,24.24,31.15,22.51,10.16,10.53-13.07-.8-21.03-8.86-16.59-13.92.22-16.01,2.95-8.84.79-12.93-1.06-12.6-2.68-8.07-7.21-4.84-7.04,1.39-7.92,3.73-9.5,2.06-29.78-10.68-7.17,1.34-2.11,9.24,7.79,56.17,5.81,21.51,2.23,13.77.12,9.21,6.17,6.04,5.58,9.56,4.79,7.92,4.22,10.08,2.64,5.99,24.62-.87,27.73-.99,31.85,30.65-.06,16.09,5.81,13.36,8.72,5.72,5.14,8.45-5.09,16.78-7.71,14.91-7.1,5.25-4.02,2.98-17.04,4.99-7.12,7.2-10.48,15.26,1.25,7.85,23.52,17.89,16.94,5.37,10.23,2.04,6.48.37,6.51-2.07,8.08,1.47,3.43,5.18,7.51-.28,5.06,1.49,4.18,2.77,3.3,4.12,2.55,5.56-11.92,1.74-8.45-5.11-7.48-1.05-9.11,13.65-2.68,14.56-2.64,6.38-5.67,2.24-5.15-2.57-2.64-5.69-.66-7.35.66-7.57-8.32,4.09-7.08-2.29-7.17-4.45-8.58-2.38-10.51,2.71-5.98.33-3.96-3.04-3.43,3.26-1.54,1.08-2.42.69,4.36,8.46,3.61,9.12,3.78,7.29,4.8,2.96,14.47-2.02,1.72,2.32-6.55,8.98-5.46,3.07-7.52,2.57-6.6,3.89-2.9,6.87,1.72,9.28,5.02,1.57,15.75-3.64-7.96,11.26-3.3,6.07-.22,6.24,3.52,3.48,5.81.19,6.25-2.24,4.97-3.97,19.27-20.92,10.43-7.45,12.85-6.57-.04,8.28,2.77,5.36,5.15,3.04,7,1.44,11.22-9.75,7.52-4.11,3.34,2.46-.84,12.56-3.04,4.53-14.61,3.97-13.68.21-9.21,3.53-8.6,4.15-7.47,10.27-6.27,11.5,1.06,11.61-1.96,9.12,2.35,6.74-.17,7.67,24.9,7.5,10.43-2.67,10.34-2.15,5.1,5.13,5.15-2.73,2.51-11.82.97-10.89,2.9-10.78,4.71-6.26,6.11,2.76-3.96,17.87,5.37,13.18,7.39,11.49,2.29,12.89-4.66-3.64-5.28-1.82-5.76-.33-6.07.8,5.1,3.91,2.24,1.07v4.22l-32.37,3.56,7.29,18.08,19.18,18.88,21.25,12.41,17.91,2.5,12.58-4.13,3.91-4.73-1.71-20.92,4.88-6.91,32.34-9.09-1.41,7.85-3.56,2.37-4.8.72-7.52,4.18-2.77-.11-2.9.36-2.9,2.73.97,1.4,5.01,5.31,1.06,2.92-3.7,16.4-5.85,6.6-8.14,3.85-6.9,5.27.17.03,25.2,5.19,21.18.02,44.92-19.23,23.36,10.66,20.89,17.57,25.53,3.46,24.25-7.12,22.96-11.07,17.99-6.05,4.86-19.9,8.83-9.58,13.85-6,6.54-8.48,4.47-11.24,8.38-8.92,10.56,2.22,3.07,4.08,13.58-9.48,25.81-48.08,2.63-5.76,3.13-5.29,4.19-3.38,4.36-3.05,4.36-6.55,3.8-7.22,29.33-54.36,24.02-59.1,33.3-71.15,4.14-15.28-3.13-15.31,7.1-12.39,10-12.2,10.73-4.45,5.64-12.13-6.15-10.48ZM1393.91,758.8l-7.54,3.82-8.21,5.46.17,12.33,4.36,4.89-9.28,12.67-5.14,8.9-14.02,8.34-15.42,3.59-15.87,7.99-6.2-14.25-13.52,3.13-13.41,4.19-9.5,5.45-9.89,1.62-23.19-.79-15.87-20.88-15.64-4.72-10.78-7.11-2.85-19.56-10.73-15.3-12.79-15.68,8.1-17.43,15.14.97,17.32,10.57,12.85-4.37,11.45-6.98.9-11.74,3.13-10.82,24.25-2.33,12.46-15.87,7.6-16.12,10.79-11.56,16.87-4.04,19.44,1.59,9.28,15.99,3.57,21.73,5.64,15.18.34,16.66-4.97,19.31,14.81-.18,12.68-4.58,11.01-.16,4.14,9.92-1.45,10.16ZM1040.77,685.73l-3.04-7.31-2.99-3.67,1.76-5.72-1.76-24.57-1.15-5.06-5.01-9.23-1.23-4.62.62-4.12,2.82-9.26.61-5.51-2.77-10.99-6.91-6.96-17.38-8.77-8.18-7.51-8.14-9.66-8.62-6.24-9.86,2.56-12.76,14.84-5.23,1.98-2.24,7.38.53,32.39-1.98,7.34,1.19,5.59,19.27,36.81,2.77,3.72,3.04,2.08.62,3.31-4.58,7.2-3.96,2.64-16.63,4.36,11.09,14.86,10.56,4.94,28.42-1.56,2.07-1.28,2.24-2.3,2.9-1.03,4.09,2.5,5.68,6.16,3.25,1.5,4.14-.47,5.41-4.75,6.07-14.38,7-4.19-1.72-3ZM1011.16,928.47l-12.36-1.08-9.55,5.09-4.44,6.19-1.01,8.79,1.23,8.57,3.52,2.21,4.44-.44,4.18,3.09,6.11-1.49,4.71-5.53.44-4.17,2.24-4.48,5.81-1.99,2.38-2.82-2.11-8.21-5.59-3.73ZM955.29,662.7l-1.06-6.5-5.19-5.89-6.73-5.34-7.39-6.26-3.43-3.84-2.6-4.51-.62-2.36-1.67-12.51-.79-2.89-1.32-2.09-2.02-1.14-3.12.78-3.04,2.56-2.64,3.5-1.67,3.31-3.08,12.85-2.24,5.42-4.75,4.34,36.69,28.63,10.95-.67,5.72-7.39Z"/>
        <path class="cls-4" d="M580.94,655.8l-4.22.67-.66,5.89,2.9,8.45,1.76,3.78,3.12-1.5,5.15-5.11,1.67-7.42-3.78-3.98-5.94-.78ZM921.5,599.07l9.59-8.29,3.56-12.14-5.02-5.68-9.9-1.56-10.65.17-10.12-6.18-8.67-2.23-7.61,2.06-6.64,6.46-6.2,18.87-1.19,2.34,2.16,7.43,5.24-.14,6.07-3.23,4.97-1.95,22.53,4.84,11.88-.78ZM49.36,444.02l-30.01,10.55-13.73-4.91-5.63,24.27,16.45,14.09,22.09,3.09,11.04-8.7-2.95-2.62-6.34-1.14-5.28-2.65-.22-7.2,2.86-1.37,13.77-1.2,10.51,6.36,7.48-5.5.88-10.04-5.94-7.4-15-5.64ZM55.61,541.16l-3.96-.45-2.73,2.17-5.81,6.07-9.11,7.27-1.63,5.38,4.31,5.62,1.76,3.34-.09.89v1.81l1.45-.53,2.77-2.9,3.56-1.28,4.22.36,4-2.2,2.2-5.9,1.67-7.02,2.42-6.13-.75-4.29-4.31-2.23ZM818.12,948.9l-3.87-3.18-3.78-6.44-4.35-3.01-3.96,5.5-3.04,9.17-1.67,11.11-.05,2.43,2.24.77,3.83-2.16,1.45-.44,1.41,3.45,3.52,6.13,5.37,2.46,6.33-.97,4.88-2.07,6.86-7.02,2.24-4.2-4.09-4.53-13.33-7.02ZM1081.38,944.64l-2.86-2.87-10.29-4.31-6.34-3.65-2.24-5.34,1.58-5.89-1.72-.55-7.61,6.69-8.89-4.31-1.19,1.38,3.91,4.51,4,6.97,2.9,10.03-.22,8.12-7.04,8.04,2.46,3.95-.79,4.59-5.9,8.01-.13,3.43,12.54-1.58,27.59-22.01,2.86-6.25-1.32-5.8-1.32-3.15ZM1733.22,761.84l-8.05-6.89-12.85-1.43-13.19-5.02-18.21-2.45-30.4-16.85-13.69-5.6-13.58-8.94-14.92-2.31-14.47,4.58-12.01-10.16.95-11.06,5.7-11.61,2.24-13.44.17-13.85-14.3,4.62-6.42-8.33,15.76-18.54-2.63-12.36-4.36-12.28,3.13-9.31-.17-11.13-1.06-10.53,27.43-20.28,11.12-3.63,6.2-9.55,2.79-27.78-12.8-19.65-10.5-2.14-10-4.62-7.54-20.26-11.96-.6-12.8.85-13.97-10.22-6.65-18.15-2.74-32.29-5.2-16.27-3.63-3.14-4.25.71-2.85,2.77-3.58.51-9.22-6.53-22.57,8-20.73-5.04-8.38-5.11-8.55-7.74-.28-12.96,4.19-12.21,3.07-4.65,2.18-4.46-3.57-3-4.58-1.1-4.36.92-3.8,2.95-7.15,9.3-7.99,8.11-12.29,2.11-10.84-7.39-2.01-6.71-.84-6.8-3.91-2.4-4.13,4.37-1.4,7-.11,22.62-7.04,11.04-19.84-9.41-18.16-16.44-6.37-6.71-6.71.85-5.98-8.7-3.74-11.33-4.92-5.95-5.87-4.71-4.52-10.8-8.05-5.13-19.05-12.13-10.71-5.26-6.67,8.51-7.35,18.22-10.98,27.21-8.91,10.32-20.84,16.19-9.44,9.62-46.18,70.7-21.51,17.19-13.94,5.31-10,1.1-6.51,4.76-2.85,16.33,3.75,58.9h.02s8.18-5.61,8.18-5.61l5.32-.75,4.05,5.1-5.68,10.94-2.46,13.73.62,7.81h0s.44,5.85.44,5.85l5.1,10.71,2.29,10.24-2.68,14.52-9.06,24.24,31.15,22.51,10.16,10.53-13.07-.8-21.03-8.86-16.59-13.92.22-16.01,2.95-8.84.79-12.93-1.06-12.6-2.68-8.07-7.21-4.84-7.04,1.39-7.92,3.73-9.5,2.06-29.78-10.68-7.17,1.34-2.11,9.24,7.79,56.17,5.81,21.51,2.23,13.77.12,9.21,6.17,6.04,5.58,9.56,4.79,7.92,4.22,10.08,2.64,5.99,24.62-.87,27.73-.99,31.85,30.65-.06,16.09,5.81,13.36,8.72,5.72,5.14,8.45-5.09,16.78-7.71,14.91-7.1,5.25-4.02,2.98-17.04,4.99-7.12,7.2-10.48,15.26,1.25,7.85,23.52,17.89,16.94,5.37,10.23,2.04,6.48.37,6.51-2.07,8.08,1.47,3.43,5.18,7.51-.28,5.06,1.49,4.18,2.77,3.3,4.12,2.55,5.56-11.92,1.74-8.45-5.11-7.48-1.05-9.11,13.65-2.68,14.56-2.64,6.38-5.67,2.24-5.15-2.57-2.64-5.69-.66-7.35.66-7.57-8.32,4.09-7.08-2.29-7.17-4.45-8.58-2.38-10.51,2.71-5.98.33-3.96-3.04-3.43,3.26-1.54,1.08-2.42.69,4.36,8.46,3.61,9.12,3.78,7.29,4.8,2.96,14.47-2.02,1.72,2.32-6.55,8.98-5.46,3.07-7.52,2.57-6.6,3.89-2.9,6.87,1.72,9.28,5.02,1.57,15.75-3.64-7.96,11.26-3.3,6.07-.22,6.24,3.52,3.48,5.81.19,6.25-2.24,4.97-3.97,19.27-20.92,10.43-7.45,12.85-6.57-.04,8.28,2.77,5.36,5.15,3.04,7,1.44,11.22-9.75,7.52-4.11,3.34,2.46-.84,12.56-3.04,4.53-14.61,3.97-13.68.21-9.21,3.53-8.6,4.15-7.47,10.27-6.27,11.5,1.06,11.61-1.96,9.12,2.35,6.74-.17,7.67,24.9,7.5,10.43-2.67,10.34-2.15,5.1,5.13,5.15-2.73,2.51-11.82.97-10.89,2.9-10.78,4.71-6.26,6.11,2.76-3.96,17.87,5.37,13.18,7.39,11.49,2.29,12.89-4.66-3.64-5.28-1.82-5.76-.33-6.07.8,5.1,3.91,2.24,1.07v4.22l-32.37,3.56,7.29,18.08,19.18,18.88,21.25,12.41,17.91,2.5,12.58-4.13,3.91-4.73-1.71-20.92,4.88-6.91,32.34-9.09-1.41,7.85-3.56,2.37-4.8.72-7.52,4.18-2.77-.11-2.9.36-2.9,2.73.97,1.4,5.01,5.31,1.06,2.92-3.7,16.4-5.85,6.6-8.14,3.85-6.9,5.27.17.03,25.2,5.19,21.18.02,44.92-19.23,23.36,10.66,20.89,17.57,25.53,3.46,24.25-7.12,22.96-11.07,17.99-6.05,4.86-19.9,8.83-9.58,13.85-6,6.54-8.48,4.47-11.24,8.38-8.92,10.56,2.22,3.07,4.08,13.58-9.48,25.81-48.08,2.63-5.76,3.13-5.29,4.19-3.38,4.36-3.05,4.36-6.55,3.8-7.22,29.33-54.36,24.02-59.1,33.3-71.15,4.14-15.28-3.13-15.31,7.1-12.39,10-12.2,10.73-4.45,5.64-12.13-6.15-10.48ZM1393.91,758.8l-7.54,3.82-8.21,5.46.17,12.33,4.36,4.89-9.28,12.67-5.14,8.9-14.02,8.34-15.42,3.59-15.87,7.99-6.2-14.25-13.52,3.13-13.41,4.19-9.5,5.45-9.89,1.62-23.19-.79-15.87-20.88-15.64-4.72-10.78-7.11-2.85-19.56-10.73-15.3-12.79-15.68,8.1-17.43,15.14.97,17.32,10.57,12.85-4.37,11.45-6.98.9-11.74,3.13-10.82,24.25-2.33,12.46-15.87,7.6-16.12,10.79-11.56,16.87-4.04,19.44,1.59,9.28,15.99,3.57,21.73,5.64,15.18.34,16.66-4.97,19.31,14.81-.18,12.68-4.58,11.01-.16,4.14,9.92-1.45,10.16ZM1040.77,685.73l-3.04-7.31-2.99-3.67,1.76-5.72-1.76-24.57-1.15-5.06-5.01-9.23-1.23-4.62.62-4.12,2.82-9.26.61-5.51-2.77-10.99-6.91-6.96-17.38-8.77-8.18-7.51-8.14-9.66-8.62-6.24-9.86,2.56-12.76,14.84-5.23,1.98-2.24,7.38.53,32.39-1.98,7.34,1.19,5.59,19.27,36.81,2.77,3.72,3.04,2.08.62,3.31-4.58,7.2-3.96,2.64-16.63,4.36,11.09,14.86,10.56,4.94,28.42-1.56,2.07-1.28,2.24-2.3,2.9-1.03,4.09,2.5,5.68,6.16,3.25,1.5,4.14-.47,5.41-4.75,6.07-14.38,7-4.19-1.72-3ZM1011.16,928.47l-12.36-1.08-9.55,5.09-4.44,6.19-1.01,8.79,1.23,8.57,3.52,2.21,4.44-.44,4.18,3.09,6.11-1.49,4.71-5.53.44-4.17,2.24-4.48,5.81-1.99,2.38-2.82-2.11-8.21-5.59-3.73ZM955.29,662.7l-1.06-6.5-5.19-5.89-6.73-5.34-7.39-6.26-3.43-3.84-2.6-4.51-.62-2.36-1.67-12.51-.79-2.89-1.32-2.09-2.02-1.14-3.12.78-3.04,2.56-2.64,3.5-1.67,3.31-3.08,12.85-2.24,5.42-4.75,4.34,36.69,28.63,10.95-.67,5.72-7.39Z"/>
      </g>
      <path class="cls-2" d="M783.54,2415.28l1.32,1.45,1.98,1.48,5.15-.83,14.39,3.84,2.9-.75,1.98-5.37,4.62-6.93,6.07-5.94,5.81-2.42-7.26-11.75-2.38-6.8.44-6.61,3.78-5.57,16.45-9.6-8.27-2.23-11.09,2.64-9.77,6.35-4.09,8.98-2.64,4.25-5.94,2.9-6.42,2.15-3.74,2.15-2.86,6.13-4.22,20.97,2.37.4,1.41,1.13ZM766.47,2540.66l4.58,1.66,3.52,3.06,4.49,1.71,7.79-2.33,6.29-5.44,4.14-7.88,1.67-9.2-1.28-9.5-4.27-7.43-6.03-4.16-5.28,1.31-2.33,8.75-2.02,4.02-4.49.08-5.15-1.42-3.48-.21-7.39,6.76-9.72,15.55-5.32,4.67v4.1l6.64-.13,17.64-3.97ZM449.88,2659.47l-4.62.11-1.8-4.76-2.42-1.9-4.44.88-4.53,3.37-3.92,6.18-3.61,7.06-2.99,8-.57,8.77,3.48,9.41,5.28,2.22,2.2-2.43,2.77-3.82,3.56-5.96,1.67-4.63,8.54-9.98,1.41-3.74,2.51-3,4.75-4.71-1.06-2.67-6.2,1.61ZM274.88,3055.56l-4.75-5.9-5.98-2.02-4.14,3.83-2.64,6.88,1.32,5.07,6.03,3.72,10.56,9.72,2.64,1.7,1.19.66,2.37.45,1.67-2.92-.53-5.18-7.74-16.01ZM770.07,2737.63l5.68-.37,4.88-1.66,1.5-7.7-4.53-9.22-5.76-8.42-6.91-15.16-4.53,5.77-1.94,12.67,2.11,22.79,4.36,3.66,5.15-2.38ZM750.01,2648.98l-6.47-5.86-4.62-8.48-2.02-1.34-3.34,1.71-9.81,13.49-15.97,6.42-3.7,5.08,4.88,10.97,2.38-.88,8.49,3.61,7.83,4.6.04,2.06,5.54.51,3.74-.32,3.78-2.78,8.18-11.04,2.24-4.82,1.19-5.16-.7-5.03-1.67-2.73ZM751.86,2594.53l-1.98-1.93-2.6-.43-3.61.48-17.69,6.78-9.68,2.12-7.35-2.84-6.6,2.57-5.94,3.86-4.31,5.78-1.63,8.19.92,8.67,2.82,6.99,4.66,4.42,6.34.75,6.42-2.92,4.71-5.81,2.9-7.76,1.1-8.83,2.99-1.71,6.78,1.45,7.39-.05,4.66-6.19,2.73,1.61,6.16,1.74,2.51,1.15-.22-13.98-1.5-4.1ZM835.27,2392.04l5.81,13.57,2.9,3.57,3.08,1.56,2.33,2.12,2.33.48,4.75.46,3.08,2.69,13.86,2.34,3.7,1.13-1.01,3.22-.09,5.78,2.16,3.9,2.64,3.39,6.29,1.45,1.41,2.07,2.11-1.72,2.11-6.39-.97-5.05-2.73-3.71-1.63-5.86-3.21-4.57-5.63-.38-5.02-2.28-5.94-6.13v-3.52l2.11-2.45,4.97-.32,3.74-3.79-1.36-4.3-3.34.97-2.64.11-1.14-2.9-3.34-1.67-5.19,2.74-4.57,1.59-5.06-3.39-6.34-2.34-6.86,2.31-3.3,5.32ZM847.81,2428.59l-.53-3.38-1.36-2.96-2.29-3.09-4.8-1.37-6.91.57-4.71-2.18-3.48.54-4.18,2.77-1.01,2.98,2.33.7,2.42-.43,1.54.86-3.91,2.98.75,1.45,2.68-.08,2.07,1.05.79,2.88,2.59.27,2.9-1.45,2.2,1.5,4.84,5.37,2.91,1.1,2.73-1.53,2.29-2.1.13-6.45ZM805.31,2551.06l-5.15-2.92-6.47.67-7.92,3.99-1.63,5.23,3.74,6.86,4.53,6.27,8.09,9.22-.22,2.63,1.19,3.88,4.88.4,5.76-3.27,1.76-6.27-.13-7.34,3.39-3.86,5.32.24,3.83-2.39,1.32-6.22-2.64-10.24,7.26-4.66-.57-4.08-2.59-3.75-2.68-1.5-3.43.35-7.08-.13-5.15,5.04,1.05,7.72-1.45,3.97-5.02.16ZM797.44,2909.08l-3.61-1.84-7.79,1.2-18.61-3.91-4.05,2.69-.26,3.22-2.29,3.12.35,3.57,3.78,5.43,11.17,4.66,3.43-.5.92-3.25,1.85-.08,2.24,3.51,2.38,1.12,3.04-2.53,5.23-.66,2.55-3.75-.88-4.71.53-7.27ZM907.69,2532.94l-6.77,2.09-.53,2.79-1.76,1.82-1.94,2.47-11,4.02-8.58.56-2.91,3.46,3.3,4.29,6.42,2.2,8.01-1.29,7.08-3.48,15.97-2.6,2.24,1.21,15.09,8.31,1.41,2.63-1.72,3.78-3.43,3.89,5.81,2.2,10.6-9.81-1.1-13.97-10.25-3.62-7.66-.08-3.48-1.1-.75-3.08-.31-3.89,1.01-3.06,8.23-5.47,4.71-.62.7-3.89-6.86-6.92-9.63-4.88-9.37-2.25-5.9,3.06,1.8,6.52,4.22,5.79-.27,4.83-2.42,4.1ZM840.68,2591.15l-1.32-2.73-3.92-5.36-5.19-2.3-4.09,3.38-7.88,3.43-13.46,2.22-5.32,4.47,6.64,3.91,9.06,3.37,7.04,6.05,6.29,3.59,6.47-1.71,3.25-3.48-1.14-8.89,1.85-4.23,1.72-1.71ZM799.99,2622.75l4.93,9.05.92,5.62,3.83,2.81,4.05-.35,1.89-.91,2.9-2.6,5.81.08,5.02,7.31,6.34,6.29,6.86-.67,3.12-6.29-.22-7.04-1.85-5.75-.53-4.36.4-3.29-1.94-3.61-3.61-3.29-5.28-1.29-6.42-.43-4.75-2.41-3.21-3.51-5.06-2.25-6.82-1.05-5.76.59-4,2.06-4.27-.03-5.24-1.39,2.24,5.46,10.65,11.24ZM882.7,2509.5l2.02-1.72,1.76-6.81-.13-2.84-3.17-1.29h-9.24l-4.22,2.31-1.1,6.28,2.68,5.96,6.6.21,4.8-2.09ZM1460.34,3099.95l-3.17-2.81-6.86-11.41-.92-6.74,1.85-6.05-1.32-2.79-.79.24-1.45,1.7-2.51.8-1.98-.66-1.71.56-.4,2.71.26,3.03-.79,2.63,1.32,4.46,1.67,2.07,2.02,1.43,1.19,5.44,1.85,4.46,1.32,2.04,7.39,1.72,7.65,3.72.66-3.21-1.41-2.23-3.87-1.09ZM1409.31,2792.58l-8.8-.67-16.89,2-17.69,3.28-8.62,3.52-7.48,5.52,5.06,3.41,2.11,2.94-.53,3.04-2.95,3.65v4.88l12.93,8.69,6.34,3.09,8.62,1.23,22.31-4.11,9.99-4.11,7.13-9.98,1.76-12.19-5.9-10.65-7.39-3.58ZM1339.58,2884.87l-3.3-4.24-1.85-2.98-2.51-2.21-5.41.61-7.39,2.34-4.22-1.86-2.02-5.92-3.52-5.28-3.83-3.73-1.72-.59.44,1.71-5.37,4.48-5.02,6.08-3.12,2.13-4,.8-1.28,1.23,1.54,1.04,3.52,1.2,9.06.85,3.61,2.18,1.28,3.31-1.58,2.61,11.83,2.45,1.94,2.61-3.43,2.29-2.68,4.07.53,5.78,5.54-2.5,9.55-7.51,3.92-3.91-3.3-1.89-1.41-1.78,3.87-1.52,5.37,1.2,4.58,2.32,3.3-.69-1.06-3.06-1.85-1.6ZM1713.35,2778.65l-4.36-.8-.26-2.35.97-4.59-8.18-15.97-7.04-5.23-9.9,1.34-9.11,4.35-2.9,5.61,3.83,4.62,4.44,2.4,2.64,4.06,2.42,5.58,5.28,4.08,7.88,2.64,5.01,2.8,1.76,2.64,1.14,1.15,4.4-.19,6.73-2.32,1.19-4.08-2.38-3.76-3.56-1.98ZM1565.75,2802.88l-4.97.27-4.88,4.86-2.51.64-.13-1.71-7.57-1.92-4.05-2.35-3.83-1.65-2.64,1.49.92,2.94.35,3.68-1.94,4.91,3.61,2.69,5.89,3.76-1.45,2.61,2.51,3.39,5.46,1.76,3.65,3.84.22,5.6,3.08,1.76,8.62-2.64,9.86-6.4,4.09-4.4v-3.87l-2.42-6.51-11.88-12.75ZM1723.89,2479.6l.06-12.26-7.26-17.9-33.69-36.73-5.81-12.19-4.69-13.97-12.07-12.67-13.3-9.7-7.32-13.15-2.29-35.16-5.42-16.94-11.12-13.12,2.9-14.44-30.84-24.9-34.58-12.51-19.61,10.94-15.76,16.98-16.93,2.36-17.94.14-19.61,2.63-19.89-.36-9.22-5.39-8.21-6.35-9.5,2.43-11.23-.16-16.32,2.7-15.53,9.31-20.11-2.99-13.02-13.88.73-21.91-11.01-12.45-3.3-12.3,4.81-19.12-10.9-16.63-15.92.87-3.91,6.82-5.31,5.11-3.47,8.77-1.28,9.46-16.71.21-25.37-34.41-16.54-13.56-9.44-4.01-9.83-.7-9,10.7-18.33-1.8-13.58,12.21-.06,8.97.5,8.98-4.97,7.54-6.82,5.02.39,7.08,1.06,6.78-4.53,9.39-7.15,6.22-8.83,4.26-9.28,2.7-7.82,4.76-7.26,5.37-18.1,2.71-17.15,6.23-16.09,4.04-13.47-4.54.78-17.96,3.46-17.84,3.13-24.26-15.59-4.2-52.52,14.68-11.17,3.6-.09.03,10.36,11.79,1.32,4.85-4.84.32-9.55-2.91-7.92-10.3-3.17-3.29-11.88,18.15-4.71,10.19-1.85,10.33.92,4.58,1.72,4.18.88,4.34-1.85,5.01-3.52,3.83-3.48,2.7-3.17,3.5-2.64,5.98,4.22.83,1.98,1.32,1.72,1.51,3.21,1.24-9.81,2.4-11.22.62-9.9,2.29-6.03,7.46,15.4-.19,7.17-1.16,6.95-2.75-1.06,9.16,2.77,5.25,5.72,4.04-1.19,6.11-2.55,3.58-2.51,2.72-1.19,3.23,4.09,9.55,17.73,20.74,5.54,14.85,3.56,3.63,4.31,2.42,10.16,2.55,2.64,4.22.27,11.77-1.41,10.48-13.64,30.92-5.76-5.94-3.87-6.74-.88-7.25,3.12-7.52-4.09-2.34-9.11-.32-5.23-1.85-6.47-3.87-1.98-2.15-.53-3.74-2.16-8.71-1.67-1.13-2.51.94h-2.16l-1.06-3.93.66-3.82,2.42-6.18,1.45-12.21-.7-6.35-3.83-7.53-4.36,15.12-3.83,7.58-6.86,4.41-4.31-10.46-9.81-5.03-11.04,1.48-7.79,9.06,1.94,10.97,13.9,18.5-5.06,7.04,7.66,10.05,7.66-.27,3.74-8.49-4.27-14.84,10.34,3.55,9.5,8.71,15.4,21.36,4,13.83-15.09,15.01,1.63,14.18-13.51-2.87-6.07-.32-6.2,3.19,2.64,5.96,3.34,4.91,4.05,4.11,4.75,3.41-2.24.97-5.15,3.54,6.78,4.48,9.46,3.09,9.77-.67,7.57-6.9-.18-6.17-2.64-7.57-.79-6.44,5.28-2.71,4.09-1.48,2.9-3.28,3.61-3.14,6.16-1.13,13.51,3.22-3.17,5.8-10.2,7.01-7.52,6.92-1.06,10.84,3.21,12.9,5.9,11.02,6.73,5.31-7,6.17-1.85,4.85,1.45,9.84-.22,5.12-.92,4.48-2.24,4.77-4,6.06-11.04,11.04-3.87,6.54,1.85,6.99,5.67,2.89,11.66-3.86,7.41.13.9-6.8,4.58-2.17,14.39,3.21,7.13-2.22,4.75-4.18,4.93-2.2,7.35,3.75-2.24,3.48-2.9,6.86-2.2,3.51,3.39,2.57v1.53l10.73-.96,5.63-7.66,6.07-22.45,6.47-12.97.92-.88-.79-5.95-3.56-11.1.66-5.47,5.94-8.21,8.05-3.78,7.44,2.25,4.35,9.74-.18,6.84-2.38,4.02-2.86,3.22-1.98,4.34v6.86l1.41,4.5.7,4.34-2.11,6.38,28.07-2.52,12.27,2.25,8.05,9.27-5.63-.29-4.49.94-8.36,4.21,3.83,8.36-12.67-.94-24.77-7.42-13.24,3.29-6.47,8.46-1.06,11.57,2.38,12.66-2.51-.96-1.45-1.15-1.32-1.34-2.11-1.45-8.32,1.61-24.72-18.24-20.55,9.2-16.11-2.52-7.57,3.11-7.73,9.69,1.65,6.25,12.5,4.12,13.62-3.69,11.03,7.17,15.99-1.04,13.46,2.7,9.81,4.66,17.69,22.69,11.7,8.56-3.96,4.89,16.23,14.28,9.24,5.86,11.39,1.93-11.31,2.9-15.59-4.98-12.88-7.04-9.99-5.76-6.73,1.46,11.32,14.97-2.34,2.9-5.72-3.76-7.53-5.42-5.86-5.69-9.7-3.85-7.05-4.6-3.27-4.44-5.63-3.64-1.28-3.96.22-2.54-.13-2.65,1.43-8.55-2.95-5.26-22.66-4.95-14.79,1.46,3.12,11.5-4.11,9.35,1.66,16.41,3.4,12.27,5.61-.51,3.45-9.29,7.14-1.31-1.91,15.09,6.88,6.89,5.24,8.2,11.12,2.42,3.21,1.6,6.07-.91-4.4,11.41-6.2.56-11.48-7.94-26.79-4.49-6.73-4.04-11.18-31.41-1.76-7.22-.93-6.71,1.58-6.58,5.15-6.8-16.5-24.73-3.56-7.84-3.17-2.17-4.22-1.21-4.05-.4-4.4,2.14-.79,5.14.44,6.1-.57,4.98-5.68,14.64-4.71,21.05.92,18.93,11.22,8.24,14.47,7.11,2.24,6.74-3.92,3.15-5.41-.08-2.16-3.07-2.11,3.64-2.2.88-.92,1.9,1.85,6.6,1.41.67,11.22,10.74,3.43,1.34,4.36-.88,3.83-2.22,1.58-2.51,1.63-4.22,3.26,3.18,2.68,5.29-.18,2.08,12.85,6.33,4.62,6.04,1.01,10.41,7.96-3.15,6.34-1.12,11.57-.21,5.28.91,4.62.16,4.8-1.07,1.85-5.93,2.24-4.49,3.3-2.99,3.65.11,7,4.33,4.49.05,3.43-2.32,4.88-6.09,2.42-.96,6.6,3.66-.18,6.14-5.28,7-8.53,5.98,5.1,1.76,4.22,2.72,3.34,3.9,2.46,5.07-13.46.32-14.39,2.78-10.78,7.95-2.38,15.83,8.67-2.88.97,4.32-2.02,8.08-.22,8.4-1.23.93-1.59,3.23.79,3.55,5.81,1.6,8.05.96,3.96,1.39,2.68,2.13,2.07,6.69-1.45,6.69-7.66,13.92-2.33,1.6-2.42-.8-1.85.35-1.06,10.31-.92,2.61-2.86,3.78v4.08l14.12-.72,6.82,1.36,4.93,4.24,1.01,7.43-5.1,15.74.75,7.72,6.25,1.28,24.9-8.2,13.2,2.82v-7.56l1.1-6.34,13.15-44.23,2.16-4.24,6.03-5.09,16.01-4.05,4.22-2.85,2.77-6.48.09-4.88,1.45-3.01,7.13-1.07,2.64.72,5.02,3.04,3.3.67,1.76-1.44.62-3.2-.53-3.2-1.85-1.47-8.05-3.2,7.79-7.18,20.72-12.03-12.1-15.4-2.16-8.01,16.67-5.58-.18-5.53-3.43-7.9-2.2-9.08,1.8-6.25,4.53-7.11,5.9-5.56,5.85-1.68,6.16,4.62,3.56,8.84.66,10.1-2.99,8.2,2.07,12.87-2.25,33.23,4.22,12.57,4.75,2.88,20.76,6.08,15.13,10.8,6.99,2.21-3.03-7.65-.26-7.04,2.24-6.43,4.75-5.74,14.39,7.2,5.06-4.51-.97-27.11,29.83-29.37-4.05-8.55,2.51-7,5.02-5.88,3.56-5.4,1.01-7.67-.26-7.24.92-5.42,4.09-2.11,6.6-1.74,6.86-4.01,10.69-8.16,19.8-11.58,4.36-3.69,9.77-12.92,5.94-5.46,6.38-2.25,13.55,2.81,6.6.35,7.79-3.16,7.57-9.26,10.91-28.08,7.65-12.05,13.33,21.55,9.77,8.16,11.79-5.01,10.25-8,3.83,5.3,2.9,11.72,7.52,11.21-4.22,6.85-7.39,15.89-3.52,4.57-8.36,3.13-6.2-2.03-4.62-5.99-3.25-8.58,2.86-6.26-.92-5.14-3.7-4.01-5.63-2.97-15.57,17.26-2.9,5.22.48,9.95,3.21,5.08,4.18,4.33,3.17,7.59.18,19.4-7.92,10.96-13.24,4.83-15.84,1.04,7.92-19.19,2.64-10.64.53-10.96-7.87,3.85-3.87,4.86-6.73,14.17-10.91,14.46-3.87,3.45-12.01,7.13-3.43,5.61.66,9.64,5.02,9.43,7.26,3.82,8.49,1.66,8.8,3.04-1.54-2.62-2.16-6.73,21.43-11.22,6.2-1.42,20.28,21.97,7.61,15.66,22.08,29.21,14.96-.07-6.91-7.52-1.63-11.44,15.58-11.83,9.91,4.54,9.11-12.95,25.64-23.55-11.25-9.59-20.55,5.37-4.58-3.04-7.58-1.66-6.47-13.62-1.28-2.09,3.12-5.02,7.39-5.29,8.71-4.01,7-1.34,7.92,2.57,24.59,15.34,6.69-1.68,10.56.51,5.57-4.74,4.95-4.96-1.53-13.69-3-7.27-23.23-8.96,4.05-.91,9.5.05,5.54.85-11.57-16.63-16.89-10.86-15.62-14.02-7.52-26.17,1.5-1.77,2.9-.75,1.14-2.3-3.83-6.26-5.41-2.33-10.16,4.1-4.62-3.78,1.98-8.97,11.61-6.53,22.97-7.34v-4.15l-11.48-3.37-13.95-6.11-7.13-5.87,8.8-2.63,23.36.59,10.73-1.34,18.43-6.51,2.77-.32,1.85-1.29,3.56-4.99,9.24-23.49,1.85-1.47,1.19-2.74,2.51.83,2.51,2.9,1.19,3.7-.53,3.38-2.38,6.43-.48,3.89,1.41,6.43,8.18,17.26-1.58,2.52-.92,3.97.26,3.37,2.64,2.84,3.17.48,3.04.08,2.24,1.45,8.58,18.56,4.36,6.19,2.51,11.11-5.1,12.95-7.04,13.7-3.3,13.91,2.64,14.71,6.2,9.71,9.64,5.32,12.93,1.6,8.84,9.3,5.59,3.1,2.46-5.45-3.96-29.36-3.17-9.25-4.22-8.67,2.68-.69.75-1.21.79-.19,3.17,2.09,9.9-21.73,12.05,2.57,15.05,7.55,19.01-6.37,4.49-7.6,6.2-32.85,5.37-18.62,1.76-9.22.62-13-10.16,5.44-9.24-.59-9.9-1.93-11.61,1.55-16.76,15.76-6.73,4.23-5.68-2.73-6.07-7.88-8.58-5.52-9.59-13.13-8.36-15.07-5.01-11.66-.62-11.02,2.9-13.2,5.89-8.43,8.45,3.38,10.21,20.82,8.14,7,11.35-5.07,20.46-16.36,5.01-5.8,2.16-4.16,3.91-12.16-1.19-3.46-.92-7.89,1.45-5.08,6.2,4.94,3.17,6.39,1.32,5.02,2.9,3.36,7.3,1.24,21.91-.22,3.54.99-1.37-2.93ZM1271.94,2355.12l-33.36-5.33-29.45-17.69-14.81-32.55,11.68-11.05,19.39,5.15,14.19-3.23,14.81-4.45,27.88,10.47,10.95,30.26-21.29,28.42ZM805.84,2724.3l-1.01-3.34-1.23-1.23-.4-5.72-6.64-3.74-3.92-4.09-6.6-5.32-4.09,3.07,3.43,11.04,5.41,8.69,2.64,6.57-2.68,6.41-6.16,4.73-7.83.24-7.48,1.15-2.9,3.47,12.01,2.67.53,2.24-3.21,2.46-2.73,2.75-3.3.16-3.12,1.09,1.93,3.37,6.25,1.82,5.89-.91,10.65-6.33,4.53-4.3,4.36-3.23,3.03-3.29.48-6.33,1.67-7.29.48-6.81ZM1241.07,2981.17l-5.45-7.82-9.24-2.37-7.7,3.8-3.83,3.67-2.11,4.95-.88,6.22-3.34,6.78,2.2,10.05,2.02,1.2,1.85-3.27,3.56-.43,4.88,4.41,5.94,3.08,8.05-.69,6.34-3.43,3.43-6.09,1.32-3.51,1.41-8.19-3.25-3.67-5.19-4.71ZM1073.28,3000.16l-3.08-.88-6.07-.11-4.49,1.38-3.17-.4-10.69-6.83h-8.23l-9.59,6.7-4.75,9.7.4,9.89,5.76,7.65,10.34.45,8.14-4.92,5.37-4.86,6.03-4.09,1.85-3.51,2.9-2.85,5.06-.13,4.93,2.71,2.02.8.97-2.55,1.93.32,2.24,2.05,1.32-2.9-4.49-5.64-4.71-1.99ZM938.88,2758.2l-.48-5.69-12.23,7.72-2.46.8-3.61-2.91-2.6-4.51-1.58-4.14-1.32-1.84-5.76-3.04-7.74-6.17-8.93-4.89-8.75.64-3.61,5.45,13.9,10.98,4.14,8.2-3.3,9.99-7.66,5.05-8.58-.88-6.33-7.8-1.5,9.29-3.92,2.91-5.15.88-5.81,3.2-5.02,5.6-3.17,5.04-4.88,14.17-15.09,1.12-15.4,17.71-6.73,21.89,11.35,13.41v-13.86l15.57,9.81,2.91,4.05-1.54,3.36-4,4-3.04,4.8,1.19,5.7,6.29,1.6,22.74-1.92,6.2-2.13,51.47-28.09,2.2-10.5v-4.11l4.27,2.67,9.24,8.74.92,2.03,5.37-3.63,4.31-6.93,10.65-22.83,2.9-9.76,1.45-10.09-.84-9.02-16.06-26.06ZM1211.07,2908.68l2.73-2.4,5.02-.93,4.66.9,3.39-3.73.53-4.55.84-2.24,3.12-3.68,1.06-4.8-4.75-2.8-7.66-1.87-6.03-.64-2.29.43-2.29.16-3.91-1.04-3.17-2.42-5.5,1.39-7.3,5.97-5.98,2.5-4.93-2.32-4.27-.67-1.98.96-2.38,1.39-5.41,1.6-5.54.72.75,2.21,11.97,5.3,2.07,1.36,2.07,1.07,5.19.05,6.47-2.29,5.54-.82,4.18,1.78,2.9,3.97,1.1,5.03,2.64,3.78,4.88-1.01,2.29-2.37ZM1080.41,2967.79l-2.82-2.1-5.81-3.03-11.26-1.92-4.18-2.26-4.27-1.38-1.8,1.57,2.77,4.55.35,1.86-1.28,1.41-1.98.98-.44,1.44,1.06,1.57-.22,1.99-1.59,2.93-2.77,7.82.53,2.18,2.55.53,2.29.82,1.06,2.63,4.27,3.99,8.23,2.23,2.73-2.29-2.64-4.68,4.36-.9,7.88-.43,1.89-7.45,3.74-3.17-.44-5.72-2.2-3.19ZM1112.79,3010.21l-5.5-8.13.93-4.97,5.15-4.44-1.28-6.38-9.15-4.71-4.62-.05-.26,2.23-4.49,4.31,1.06,3,3.56,3.32-1.19,8.4-3.43,15.07,1.19,8.77,2.77.61,2.6,2.07.97,3.03,2.77,1.65,5.32-1.46,2.73-5.13v-6.59l.79-3.88,2.38-.37,1.72-1.97-1.85-3.19-2.16-1.2ZM1203.68,2827.77l-2.55-3.92-6.73-1.17-11.22,2.67-10.69,5.92-7.61,10.08-3.74,8.27-2.51,3.84-1.98,3.89,2.38,2.43,2.64.19,2.6,1.92,1.14,5.7-.09,6.77,3.52,4.1,2.9-2.05,1.58-7.03,5.02-6.74,14.25-6.66,2.73-4.02,4.62-1.15,11.09,3.41,3.96-.67-.48-4-3.61-5.25-4.14-4.64-5.02-3.07-.44-1.57,2.82-2.91-.44-4.32ZM1162.46,2908.23l-9.9-9.8-1.67-5.59-2.95-4-1.72-4.8-1.5-10.36-5.02-12.63-6.42-7.6-5.81-3.95-6.2-2.05-9.5.96-3.12.72-5.81,2.8-4.27,6.32-2.16,8.26-.44,8.26.53,8.1,1.58,7.11,3.78,4.8,6.34,4.15,7.04,1.94,5.63-1.47,4.66,1.25,1.32,4.82-5.02,3.83.09,4.23,10.16,3.57,8.18,1.92,4.75,2.18,2.6-1.52.53-3.83,2.29-.45,4.14,2.69,4.84,2.1,2.64.74,2.64.37,1.85-1.76-3.04-7.3-1.06-4.05Z"/>
      <polygon class="cls-1" points="2087.17 143.08 2134.9 237.61 2172.12 336.7 2178.19 347.47 2197.6 371.51 2205.03 391.69 2295.13 520.71 2330.11 571.68 2371.99 618.16 2377.93 623.02 2406 656.08 2407.45 670.03 2407.58 686.81 2410.92 701.03 2430.06 711.69 2435.6 723.13 2451.4 774.62 2458.44 786.54 2466.88 791.61 2473.97 798.96 2498.56 847.38 2513.34 865.99 2518.45 876.23 2520.43 887.07 2524.16 897.59 2550.25 926.32 2558.57 949.87 2565.96 1001.27 2576.12 1029.53 2603.84 1068.2 2605.95 1076.3 2602.78 1084.13 2597.77 1091.6 2594.6 1098.9 2594.38 1105.46 2598.29 1126.64 2603.05 1187.08 2608.06 1214.96 2626.01 1271.87 2627.46 1299.7 2621.83 1325.44 2609.64 1348.81 2599.75 1376.52 2594.33 1376.29 2576.28 1372.15 2558.96 1379.82 2521.53 1365.99 2527.5 1349.95 2525.83 1334.91 2521.08 1318.24 2519.63 1299.35 2526.83 1281.43 2532.65 1264.44 2528.4 1259.42 2523.76 1255.01 2525.94 1239.67 2486.33 1236.71 2474.71 1230.09 2462.3 1224.77 2457.22 1212.34 2453.25 1197.95 2435.43 1189.5 2424.31 1172.66 2421.91 1150.75 2425.82 1133.97 2435.04 1126.97 2445.15 1123.18 2460.9 1129.42 2473.7 1119.84 2468.45 1104.23 2451.57 1094.05 2433.08 1089.73 2418.39 1097.5 2404.25 1101.08 2384.3 1091.92 2363.13 1088.35 2355.98 1091.27 2350.05 1090.53 2345.47 1084.39 2338.88 1081.64 2323.51 1093.63 2307.31 1100 2306.08 1088.14 2307.42 1076.36 2298.04 1071.68 2287.59 1069.29 2279.99 1055.93 2265.24 1054.77 2250.54 1061.67 2240.71 1073.68 2244.29 1090.34 2242.55 1105.9 2239.37 1120.36 2225.57 1119.07 2209.42 1115.59 2196.07 1109.97 2182.21 1102.61 2171.37 1095.59 2160.42 1090.83 2146.68 1089.24 2132.6 1086.46 2118.35 1077.22 2105.5 1067.46 2092.59 1067.55 2079.57 1071.72 2067.95 1073.78 2058.12 1074.52 2054.21 1065.61 2043.48 1054.45 2044.43 1044.79 2039.07 1038.87 2013.31 1041.81 1996.88 1047.31 1991.97 1049.62 1987.16 1049.52 1979.51 1045.28 1973.58 1038.59 1982.86 1024.19 1998.45 1013.08 2004.71 998.79 1994.98 995.86 1964.14 990.99 1933.97 980.22 1921.46 989.9 1910.78 995.51 1897.88 992.79 1887.04 1001.18 1869.16 1011.15 1851.22 1015.5 1844.52 1006.08 1844.52 991.51 1823.96 969.72 1796.41 979.05 1786.19 991.6 1789.15 1024.57 1778.2 1032.09 1774.57 1036.52 1770.38 1040.18 1765.74 1038.01 1761.16 1035.15 1744.62 1034 1728.19 1037.89 1732.83 1005.15 1675.34 1013.02 1618.23 1028.69 1647.57 974.33 1671.59 915.22 1704.89 844.08 1709.03 828.8 1705.9 813.49 1712.99 801.1 1723 788.91 1733.72 784.45 1739.37 772.32 1733.22 761.84 1725.17 754.96 1712.32 753.53 1699.14 748.51 1680.92 746.06 1650.53 729.21 1636.84 723.61 1623.26 714.67 1608.35 712.36 1593.87 716.95 1581.86 706.79 1582.81 695.74 1588.51 684.13 1590.75 670.69 1590.91 656.84 1576.61 661.46 1570.18 653.13 1585.94 634.59 1583.31 622.23 1578.96 609.96 1582.09 600.65 1581.92 589.52 1580.86 578.98 1608.29 558.7 1619.41 555.08 1625.61 545.53 1628.4 517.75 1615.61 498.1 1605.11 495.96 1595.1 491.34 1587.56 471.08 1575.6 470.48 1562.81 471.33 1548.84 461.11 1542.19 442.96 1539.46 410.68 1534.26 394.41 1530.63 391.27 1526.38 391.98 1523.53 394.75 1519.96 395.26 1510.74 388.73 1488.16 396.73 1467.43 391.7 1459.05 386.59 1450.5 378.85 1450.23 365.89 1454.42 353.68 1457.49 349.03 1459.67 344.57 1456.09 341.57 1451.51 340.47 1447.15 341.39 1443.35 344.34 1436.2 353.64 1428.21 361.76 1415.92 363.87 1405.08 356.48 1403.07 349.77 1402.23 342.97 1398.32 340.57 1394.19 344.94 1392.79 351.94 1392.68 374.56 1385.64 385.59 1365.8 376.19 1347.64 359.75 1341.27 353.04 1334.57 353.89 1328.59 345.19 1324.85 333.86 1319.93 327.91 1314.06 323.2 1309.54 312.4 1301.49 307.27 1282.44 295.14 1271.73 289.88 1274.9 285.84 1304.54 261.37 1338.98 239.76 1375.22 225.04 1410.08 221.27 1427.29 223.1 1493.95 217.26 1545.21 232.84 1561.5 231.34 1593.26 221.69 1697.55 212.54 1701.99 215.57 1708.89 225.57 1715.54 232.3 1722.97 234.21 1758.7 226.68 1815.41 229.99 1852.23 227.07 1889.33 213.82 1923.86 191.46 1952.63 161.24 1965.15 143.3 1975.6 124.15 1982.63 102.85 1984.98 78.34 1980.4 54.7 1979.23 42.64 1982.63 33.71 1997.39 22 2027.95 6.1 2044.1 38.09 2044.1 38.09 2069.31 88.04 2074.32 109.94 2087.17 143.08"/>
      <g>
        <path class="cls-3" d="M3400.35,746.86l-6.47,1.33-12.85,4.74-19.22,3.27-9.72,6.49-4.58,10.37,2.82,13.89,8.89,10.73,13.37,8.04,13.77,2.69,10.29-5.18,6.29-12.81,5.98-19.27.66-17.31-9.24-6.99ZM2682.1,1753.66l-1.98-11.48-8.92-7.11-6.61,11.08-34.36,37.65-13.88,10.89-10.96-1.88-8.63-10.56-8.19-9.19-11.4-10.58.5-9.15,9.01-7.45,5.32-1.74,5.63-2.72,4.36-5.88,2.02-10.45-2.9-3.76-4.36-3.05-4-17.43-3.12-22.77-2.9-3.38-3.61-2.45-3.3-6.1-1.85-10.99,2.29-81.02,2.86-13.27,6.51-11.39,16.72-20.24,3.3-12.33,3.34-57.37-2.95-27.81-7.39-27.6-2.77-26.47-.13-1.12-5.42-.23-18.05-4.14-17.32,7.67-37.43-13.84,5.98-16.03-1.68-15.05-4.75-16.67-1.45-18.89,7.21-17.92,5.81-16.98-4.25-5.02-4.64-4.41,2.18-15.34-39.61-2.97-11.62-6.61-12.4-5.32-5.08-12.43-3.97-14.39-17.82-8.45-11.12-16.84-2.4-21.91,3.91-16.78,9.22-6.99,10.11-3.79,15.76,6.24,12.8-9.58-5.25-15.6-16.87-10.18-18.49-4.32-14.69,7.77-14.14,3.59-19.95-9.17-21.18-3.57-7.15,2.92-5.92-.74-4.58-6.14-6.59-2.75-15.36,11.99-16.2,6.37-1.23-11.86,1.34-11.78-9.39-4.67-10.45-2.4-7.6-13.36-14.75-1.16-14.7,6.9-9.83,12.01,3.57,16.66-1.73,15.55-3.18,14.47-13.8-1.29-16.15-3.48-13.35-5.61-13.86-7.37-6.59,7.51-7.32,4.23-6.43-2.48-5.25,3.36-12.46,13.22-13.74,11.51-9,8.74-11.18,3.51-6.7,5.59-4.75,8.62-16.71,11.86-11.9,17.03-5.64,12.71-6.87,12.6,3.8,6.61,7.15,6.6-7.99,26.5-45.26,19.04-19.28-6.35-8.05-16.31-12.74-11.04-8.99-6.42-7.04-7.9-7.04,6.96-5.64,8.92-2.68,10.52-3.8,11.13-15.59-1.22-16.71-5.88-8.72-5.63-9.22,5.95-8.88,11.98-10.78.92-8.66-5.74-6.54,11.09-6.76,14.75-3.63,13.84,10.34,13.35,7.88,15.15-38.33-6.1-20.62-8.95-11.73,17.52-18.88,8.97-16.82,11.44-1.4,8.01.34,6.28-3.02,6.87-12.18,16.37-7.82,8.38-7.93,1.44-7.99,3.72,6.09,15.39,21.18,3.6,26.48,38.49-9.83,9.6-5.36,15.37-2.18,36.61-3.24,16.13,3.41,11.57,5.98,10.6-7.77,15.46-11.96,10.35,3.24,31.86,21.74-5.13,13.07,4.28,15.31,12.8,10.5,4.99,27.6-6.63,12.24,9.04,6.15,34.93-11.51-.69-12.96-2.4-13.07,11.21,3.02,17.99.11,9.17-1.17,11.01-5.2,6.31-4.19,7.47-4.52,17.16-8.38,16.38-13.58,4.56-13.13,6.44,22.12,37.82-2.51,42.52,4.36,14.82,10.95,6.38,5.03,3.79,4.97,4.24.45,5.27,2.18,5.39,4.36,1.98,4.41,1.48,16.37,1.28,7.1,5.96,8.77,5.92,15.53,1.21,15.31-.14,13.97,4.72,10.28,11.19,7.21,13.7,11.96,8.47,3.02,6.23,1.84,5.73,8.32,5.16,7.21,8.48-.33,15.7-6.48,15.01,8.49,30.73,33.36,1.41,16.32-2.3,15.59,2.61,14.64,7.04,13.86,10.41,15.36,3.09,28.94-14.88,14.81,3.01,13.35-19.05,12.46-9.66,4.47,36.77,13.63,16.66,16.93,10.73,19.61-2.21,20.23-3.62,17.65,5.41,16.87,8.89,20.17.58,17.6-13.97,7.77-2.89,7.82-1.03,7.43-6.44,6.2-8.02,19.56-8.04,20.78,5.17,15.92,7.51,15.14-5.07,13.02-10.55,13.91-8.12,8.32-.21,3.41-6.53-5.2-8.59-2.96-9.32,18.21-14.15,22.85-8,18.72-2.84,18.33,3.85,19.05,8.22,4.97,8.18.28,9.94,1.34,8.87,6.7,4.83,9.05,2.35,50.28-9.09,42.8,10.48.48-.13-4.15-4.96-4.5-11.87,4.61-10.45,10.57-20.91,14.34-43.04-.78-24.79,14.01-39.65,5.79-45.68,1.49-17.37,19.49-38.8,8.44-13.22-2.82-13.3-3.83-11.94ZM2239.87,1882.41l-8.44,8.72-4.08-1.21-5.08.45.28,4.38-.73,5.63-5.08,13.33-.06,4.31-1.62,6.25-12.07,7.32-31.23-8.15-17.49-1.76-7.71,6.1-7.71,13.5-4.13,3.53-4.97-4.11-6.65-4.3-9.55-7.75-6.43-12.43-7.88-7.75-8.38-3.27-3.24-12.32,7.49-10.46,8.1-.05,8.72-1.43,2.29-6.31,1.01-6.65-4.75-1.76-5.14-.84,5.81-13.12,9.27-10.21-3.41-30.44,25.42-21.13,34.42-4.63,28.55-1.86,21.68,15.92,6.87,11.98-.28,5.28-2.63,4.45.17,16.87,4.36,6.55,5.81,4.95,1.12,10.59.28,11.29-2.91,10.55Z"/>
        <path class="cls-4" d="M3400.35,746.86l-6.47,1.33-12.85,4.74-19.22,3.27-9.72,6.49-4.58,10.37,2.82,13.89,8.89,10.73,13.37,8.04,13.77,2.69,10.29-5.18,6.29-12.81,5.98-19.27.66-17.31-9.24-6.99ZM2682.1,1753.66l-1.98-11.48-8.92-7.11-6.61,11.08-34.36,37.65-13.88,10.89-10.96-1.88-8.63-10.56-8.19-9.19-11.4-10.58.5-9.15,9.01-7.45,5.32-1.74,5.63-2.72,4.36-5.88,2.02-10.45-2.9-3.76-4.36-3.05-4-17.43-3.12-22.77-2.9-3.38-3.61-2.45-3.3-6.1-1.85-10.99,2.29-81.02,2.86-13.27,6.51-11.39,16.72-20.24,3.3-12.33,3.34-57.37-2.95-27.81-7.39-27.6-2.77-26.47-.13-1.12-5.42-.23-18.05-4.14-17.32,7.67-37.43-13.84,5.98-16.03-1.68-15.05-4.75-16.67-1.45-18.89,7.21-17.92,5.81-16.98-4.25-5.02-4.64-4.41,2.18-15.34-39.61-2.97-11.62-6.61-12.4-5.32-5.08-12.43-3.97-14.39-17.82-8.45-11.12-16.84-2.4-21.91,3.91-16.78,9.22-6.99,10.11-3.79,15.76,6.24,12.8-9.58-5.25-15.6-16.87-10.18-18.49-4.32-14.69,7.77-14.14,3.59-19.95-9.17-21.18-3.57-7.15,2.92-5.92-.74-4.58-6.14-6.59-2.75-15.36,11.99-16.2,6.37-1.23-11.86,1.34-11.78-9.39-4.67-10.45-2.4-7.6-13.36-14.75-1.16-14.7,6.9-9.83,12.01,3.57,16.66-1.73,15.55-3.18,14.47-13.8-1.29-16.15-3.48-13.35-5.61-13.86-7.37-6.59,7.51-7.32,4.23-6.43-2.48-5.25,3.36-12.46,13.22-13.74,11.51-9,8.74-11.18,3.51-6.7,5.59-4.75,8.62-16.71,11.86-11.9,17.03-5.64,12.71-6.87,12.6,3.8,6.61,7.15,6.6-7.99,26.5-45.26,19.04-19.28-6.35-8.05-16.31-12.74-11.04-8.99-6.42-7.04-7.9-7.04,6.96-5.64,8.92-2.68,10.52-3.8,11.13-15.59-1.22-16.71-5.88-8.72-5.63-9.22,5.95-8.88,11.98-10.78.92-8.66-5.74-6.54,11.09-6.76,14.75-3.63,13.84,10.34,13.35,7.88,15.15-38.33-6.1-20.62-8.95-11.73,17.52-18.88,8.97-16.82,11.44-1.4,8.01.34,6.28-3.02,6.87-12.18,16.37-7.82,8.38-7.93,1.44-7.99,3.72,6.09,15.39,21.18,3.6,26.48,38.49-9.83,9.6-5.36,15.37-2.18,36.61-3.24,16.13,3.41,11.57,5.98,10.6-7.77,15.46-11.96,10.35,3.24,31.86,21.74-5.13,13.07,4.28,15.31,12.8,10.5,4.99,27.6-6.63,12.24,9.04,6.15,34.93-11.51-.69-12.96-2.4-13.07,11.21,3.02,17.99.11,9.17-1.17,11.01-5.2,6.31-4.19,7.47-4.52,17.16-8.38,16.38-13.58,4.56-13.13,6.44,22.12,37.82-2.51,42.52,4.36,14.82,10.95,6.38,5.03,3.79,4.97,4.24.45,5.27,2.18,5.39,4.36,1.98,4.41,1.48,16.37,1.28,7.1,5.96,8.77,5.92,15.53,1.21,15.31-.14,13.97,4.72,10.28,11.19,7.21,13.7,11.96,8.47,3.02,6.23,1.84,5.73,8.32,5.16,7.21,8.48-.33,15.7-6.48,15.01,8.49,30.73,33.36,1.41,16.32-2.3,15.59,2.61,14.64,7.04,13.86,10.41,15.36,3.09,28.94-14.88,14.81,3.01,13.35-19.05,12.46-9.66,4.47,36.77,13.63,16.66,16.93,10.73,19.61-2.21,20.23-3.62,17.65,5.41,16.87,8.89,20.17.58,17.6-13.97,7.77-2.89,7.82-1.03,7.43-6.44,6.2-8.02,19.56-8.04,20.78,5.17,15.92,7.51,15.14-5.07,13.02-10.55,13.91-8.12,8.32-.21,3.41-6.53-5.2-8.59-2.96-9.32,18.21-14.15,22.85-8,18.72-2.84,18.33,3.85,19.05,8.22,4.97,8.18.28,9.94,1.34,8.87,6.7,4.83,9.05,2.35,50.28-9.09,42.8,10.48.48-.13-4.15-4.96-4.5-11.87,4.61-10.45,10.57-20.91,14.34-43.04-.78-24.79,14.01-39.65,5.79-45.68,1.49-17.37,19.49-38.8,8.44-13.22-2.82-13.3-3.83-11.94ZM2239.87,1882.41l-8.44,8.72-4.08-1.21-5.08.45.28,4.38-.73,5.63-5.08,13.33-.06,4.31-1.62,6.25-12.07,7.32-31.23-8.15-17.49-1.76-7.71,6.1-7.71,13.5-4.13,3.53-4.97-4.11-6.65-4.3-9.55-7.75-6.43-12.43-7.88-7.75-8.38-3.27-3.24-12.32,7.49-10.46,8.1-.05,8.72-1.43,2.29-6.31,1.01-6.65-4.75-1.76-5.14-.84,5.81-13.12,9.27-10.21-3.41-30.44,25.42-21.13,34.42-4.63,28.55-1.86,21.68,15.92,6.87,11.98-.28,5.28-2.63,4.45.17,16.87,4.36,6.55,5.81,4.95,1.12,10.59.28,11.29-2.91,10.55Z"/>
      </g>
      <polygon class="cls-1" points="1507.27 1509.6 1524.7 1505.73 1531.02 1496.54 1538.56 1498.42 1537.61 1506.07 1544.26 1509.49 1545.21 1521.49 1550.8 1539.36 1548.17 1555.13 1541.07 1566.54 1533.25 1595.54 1519.12 1606.96 1511.35 1609.59 1499.28 1602.56 1481.63 1593.77 1474.53 1580.6 1469.56 1556.88 1461.07 1541.06 1456.82 1522.6 1467.66 1477.74 1469.78 1472.47 1468.33 1468.06 1371.61 1494.53 1322.39 1484.86 1327.31 1470.77 1335.52 1462.9 1404.52 1431.05 1444.3 1423.05 1485.43 1425.66 1485.04 1432.97 1482.3 1439.27 1481.24 1444.4 1483.02 1448.71 1483.41 1452.11 1484.03 1455.52 1482.97 1462.5 1480.68 1469.1 1479.45 1474.24 1481.35 1479.13 1485.2 1483.36 1489.9 1485.64 1493.02 1493.18 1490.96 1504.95 1507.27 1509.6"/>
      <path class="cls-2" d="M972.71,1495.14l-4.07-12.43-1.47-6.42.54-3.33.6-4.23-7.66-4.3-3.7-.74v-4.16h11.35l-4.8-8.39-6.13-3.64-2.79-4.83,2.38-5.47-1.45-6.57-9.11-20.65-.49-4.62,4.12-3.31,2.35-4.94-.97-4.14-7.19-11.53-10.3,3.52-9.58,8.92-4.67,6.13,5.59,18.8,2.49,14.9,2.08,24.64-2.95,16.14,5.67-3.04,2.5,6.04,7.39-8.75,3.7,4.16-9.77,13.54-1.67,10.04,6.03,2.9,12.89-8.15-2.2,5.95-4.15,3.83-2.61,3.58,1.47,10.05,7.79,1.26,24.02-1.37,5.15,2.4-3.08-10.5-7.3-11.26ZM1612.42,1751.36l-11.01-19.62-4.64-22.94.73-23.14-5.59-19.92-16.59-10.18-16.04-5.21-17.43,3.62-1.45-19.06.95-18.53,6.48-25.92,12.24-22.05,4.92-11.24,5.48-9.99,8.88-6.71,2.07-11.64-6.93-2.31-7.49-3.38-9.11,6.65-7.1,9.58-2.63,15.77-7.1,11.41-7.82,29-14.13,11.42-7.77,2.63-12.07-7.03-17.66-8.79-7.1-13.17-4.97-23.72-8.49-15.82-4.25-18.46,10.84-44.86,2.12-5.26-1.45-4.41-96.71,26.47-49.23-9.67,4.92-14.09,8.21-7.87,69-31.86,2.51-20.67,6.76-19.33-1.01-11.33,10.56-22.99,14.97-21.73,11.4-19.82,4.52-4.86,5.14.8,5.03-1.41,2.74-5.16.73-5.8,1.68-7.37,2.63-7.11,1.34-7.62-1.17-7.66-3.58-6.78-4.47-4.1.56-13.89-7.1-4.99-9.28-18.71-7.26-4.22-6.37-6.7-4.25-10.02-25.53-3.46-20.89-17.57-23.36-10.66-44.92,19.23-21.18-.02-25.2-5.19-.17-.03-10.39,7.93-23.49,9.49-9.94,1.65-11.04,4.95,5.54,11.35,18.57,20.61-11.48-1.43-10.95-3.19,4.49,16.93-2.73,9.61-5.32,9.01-3.17,15.16-4.49-2.06-3.12-2.63-2.11-3.87-1.63-5.69,8.89-2.72,1.54-6.01-4.58-21.02-4.8-8.08-1.05-5.55.53-5.33,2.51-9.18.57-4.12-1.19-19.31-2.25-9.96-3.87-5.56-5.54,1.02-10.16,13.12-6.47,4.29,8.49-29.22-.79-14.45-11.39-11.73-9.4-6.18-13.11-3.53-10.36-3.8-9.36-1.2-8.37.08-8.92,4.18-5,9.43-3.43,5.78-2.2,5.48,2.06,16.6-1.45,5.61-2.38,5.01-5.94,4.13,1.98-11.12-.66-6.33-5.37-10.29-1.06-4.84,5.25-6.19,2.55-9.15-5.41-9.24-7.91-4.37-8.2-5.6-4.24-4.33-10.33-7.15-10.82-7.74-7.74-6.81-8.62-4.16-9.9.28,1.18,10.48,5.05,15.64,11.2,10.5,10.29,4.96,7.66,1.9,3.7,4.35-.48,4.65-5.06,2.97-6.73-.03-5.54-2.53-4.57-4.07-8.62-10.8-5.54-5.23-4.62-.82-1.85,7.3,2.38,1.9,33.13,35.08,4.14,6.88,4.71,13.78,3.87,5.15v4.18l-7.7-.33-4.09-4.46-2.77-6.77-3.83-7.32-9.37-10.4-6.56-4.46-2.9,3.74-2.29,15.91-9.9,32.29-2.2,16.83-1.76,3.16-3.96-2.31-3.96-6.13-1.8-8.74v-30.2l1.54-4.18,4.88-5.83.97-1.76-.57-4.62-2.51-4.29-.62-4.73-2.24-5.67-5.28-.11-6.11,3.33-4.75,4.76-3.43-10.96,3.17-7.68,5.19-5.87,2.73-5.53-4.05-8.95-9.55-3.36-19.93.33v5.04l2.37,5.1-2.07,2.09-4.53-.91-5.15-3.97-5.28-3-5.81.99-5.37,3.75-4,5.2,9.9-.74,8.32,2.53,3.83,6.22-3.56,10.49-7.79-5.64-2.6,2.2,1.72,6.28,5.24,6.39,7,2.83,14.17.25,4.71,1.57,4.22,11.23-1.98,15.19-7.65,12.46-13.02,3.05v4.21l10.43,4.37,4.31.66v4.21l-10.82,2.75-5.63,2.28-2.29,2.28-2.46,7.31-5.32-3.46-8.71-11.16-5.76,6.76,3.96,15.09,11.18,24.23-15.57-10.71-6.82.19-9.11,8.41-3.87,1.78-2.86-3.6-1.76-6.15-.53-5.82,2.02-1.76,9.72-6.37,2.95-3.19-.44-2.69-3.39-9.95-.18-6.21,3.3-5.85,5.28-5.61,3.3-6.27-6.73-17.8-2.38-14.8-.39-14.62,1.63-9.33-12.58,3.88-2.51,16.68,1.36,20.44-.97,15.21-3.52,6.08-3.61,2.5-13.42.25-7.43-1.6-1.32-4.57,3.43-16.5-13.2,4.76-9.33,7.59-.79,9.4,12.23,10.14-8.93,14.41,1.01,8.41,8.49,3.85,13.81.99-4.09,8.02-6.34,1.65-15.4-4.62,5.76,10.38,5.68,8.02-4.62-.99-4.09-1.43-3.56-.27-2.86,2.69-3.74-5.49-2.9-5.55-2.33-5.88-1.72-6.54-2.15,8.63-2.73,6.16-13.86,17.63-1.5,4.56,1.06,16.42-.66,16.91,2.11,5.43,6.33-5.76,3.04-7.79,1.58-16.8,2.77-8.07,7,5.77,8.71,2.55,8.32,4.09,5.81,10.6.13,10.18-5.68,3.87-22.3-.22-2.64,2.8.84,6.2,2.24,6.28,1.58,3.13,6.56,3.81,5.54-.38,5.54-2.19,6.2-1.23,10.56-3.92,14.3-18.11,9.99-5.6,4.09,18.41-4.75,13.08,15.88,26.1-7.44,16.44,1.85,3.89,1.23,4.55.62,5.01-.09,4.93,4.71-6.99,5.85-5.75,7-4,8.27-1.64-9.11-12.36-.79-5.56,5.94-5.04-3.56-11.1-9.85-15.77-5.06-10.37,12.32-.19,3.91-7.9,1.32-10.79,4.88-8.78,8.71-1.54,5.81,6.97-1.87,17.1,6.21,2.96-3.21,13.15-2.6,36.4,10.4,6.86,10.45.47,10.01,7.82,4.89-6.16,5.74-15.06-2.37-17.64,3.98-13.14-.67-11.43-3.82-5.86-.31-4.75,1.72-4.77,8.58-3.68,7.66-8.37,4.53-3.87,1.67,5.93,2.51,4.17,7.26,8.29-12.65,2.01-4.14,8.29,2.62,11.26,12.96,2.44,5.15,9.34-7.61,6.13-5.49,7.89,8.68,8.6,6.41,1.34,4.41,5.85-3.24,7.26-.84,8.2-11.28-.37-10.81,5.03-7.46.47.24,2.82,3.29,4.91,2.72,11.57.46,6.17-2.36,5.64,2.51,6.18,2.56.53,4.24,2.82,4.68,4.41,10.37-3.75,1.72,3.67-5.24,8.16-11.26,13.22-.35,7.52,3.12,12.75,4.93,12.42,5.37,6.54,8.58-1.64,11.66-17.39,7.61-4.35h31.54l-10.53,5.64-22.26,6.21-10.4,15.19-11.16,3.38-9.79,5.43,8.1,15.06h-7.04v4.54l4.36,3.85,6.38,7.79,3.7,2.57,17.82.11,8.53,2.24,3.48,8.9-5.01,6.99-24.07,5.84-8.14,7.54,8.27,4.4,22.96,7.04,5.98,7.34-7.92,5.27-6.51,13.78-11.35,31.26,3.34,4.74,4.05,4.42,3.08,1.69,4.31-2.54,3.61.85,6.03,4.42,4.53,5.21,8.01,13.25-22.67-6.54-16.21,5.12-18.36,9.32-2.15,19.56,3.7,3.4,1.8-4.33,3.28-12.61,10.56-1.67,12.22,7.83.28,7.37,3.4.03,7.19-4.16,9.5,4.13,12.37,21.29,6.77,2.26,7.39,3.1,3.52,4.19-7.52,6.1,4.88,8.14,9.11,12,4.49,7.26,2.82,8.4.88,6.12,2.77,4.65,8.23,4.02,11.31-5,12.06-2.04,10.12-4.87,9.15-8.81,10.91-7.53,11.12-3.43,24.33-30.04,25.87-2.83,30.39-6.54,55.99-17.67,19.95,3.99-4.8,29.53,11.51,17.94,15.98-2.99,15.14-5.88,29.78-5.81,7.82-2.73,7.65-3.42,11.34-2.35,7.26-11.32,9.05-9.28,17.26,15.35,24.3,43.84,17.94,9.03,6.93,1.76,3.24,6.67-3.8,7.63,2.24,5.37,31.29,4.11,11.68-2.86,15.92-.74,16.04-4.45,13.13-11.55,12.8-12.85-12.29-19.12Z"/>
      <polygon class="cls-1" points="1851.22 1015.5 1869.16 1011.15 1887.04 1001.18 1897.88 992.79 1910.78 995.51 1921.46 989.9 1933.97 980.22 1964.14 990.99 1994.98 995.86 2004.71 998.79 1998.45 1013.08 1982.86 1024.19 1973.58 1038.59 1979.51 1045.28 1987.16 1049.52 1991.97 1049.62 1996.88 1047.31 2013.31 1041.81 2039.07 1038.87 2044.43 1044.79 2043.48 1054.45 2054.21 1065.61 2058.12 1074.52 2067.95 1073.78 2079.57 1071.72 2092.59 1067.55 2105.5 1067.46 2118.35 1077.22 2132.6 1086.46 2146.68 1089.24 2160.42 1090.83 2171.37 1095.59 2182.21 1102.61 2175.62 1110.11 2168.3 1114.34 2161.87 1111.86 2156.62 1115.22 2144.16 1128.44 2130.42 1139.95 2121.42 1148.68 2110.25 1152.2 2103.54 1157.79 2098.79 1166.41 2082.09 1178.27 2070.19 1195.3 2064.55 1208.01 2057.67 1220.62 2061.47 1227.23 2068.62 1233.83 2060.63 1260.33 2015.38 1279.37 1996.1 1273.02 1988.06 1256.72 1975.32 1245.68 1966.32 1239.25 1959.28 1231.35 1952.24 1238.31 1946.6 1247.23 1943.92 1257.75 1940.12 1268.87 1924.53 1267.65 1907.82 1261.78 1899.11 1256.14 1889.89 1262.09 1881 1274.07 1870.22 1275 1861.56 1269.26 1855.02 1280.35 1848.26 1295.1 1844.63 1308.93 1854.97 1322.28 1862.84 1337.43 1824.52 1331.34 1803.9 1322.38 1792.17 1339.91 1773.28 1348.87 1756.46 1360.31 1755.07 1368.32 1755.4 1374.6 1752.39 1381.48 1740.21 1397.85 1732.38 1406.23 1724.45 1407.68 1716.46 1411.4 1722.55 1426.79 1743.72 1430.38 1770.21 1468.88 1760.37 1478.48 1755.01 1493.85 1752.83 1530.46 1749.59 1546.59 1753 1558.16 1758.98 1568.76 1751.21 1584.22 1739.25 1594.57 1742.5 1626.43 1764.23 1621.3 1777.3 1625.58 1792.61 1638.38 1803.12 1643.36 1830.72 1636.73 1842.95 1645.77 1849.1 1680.7 1837.59 1680 1824.63 1677.6 1811.55 1688.81 1814.57 1706.8 1814.68 1715.96 1813.51 1726.97 1808.31 1733.28 1804.12 1740.75 1799.6 1757.91 1791.22 1774.28 1777.64 1778.84 1764.51 1785.28 1757.58 1792.57 1750.65 1798.92 1742.72 1794.63 1734.84 1787.1 1714.89 1796.11 1697.52 1806.76 1688.86 1804.27 1683.83 1797.97 1659.64 1790.01 1651.53 1780.4 1642.37 1774.99 1638.85 1779.71 1634.49 1780.78 1629.35 1776.06 1624.72 1770.48 1612.42 1751.36 1601.42 1731.75 1596.78 1708.8 1597.51 1685.66 1591.92 1665.75 1575.32 1655.57 1559.29 1650.36 1541.86 1653.98 1540.4 1634.91 1541.35 1616.38 1547.83 1590.46 1560.07 1568.41 1564.99 1557.17 1570.46 1547.18 1579.35 1540.47 1581.41 1528.83 1574.49 1526.52 1567 1523.14 1557.89 1529.78 1550.8 1539.36 1545.21 1521.49 1544.26 1509.49 1537.61 1506.07 1538.56 1498.42 1531.02 1496.54 1524.7 1505.73 1507.27 1509.6 1490.96 1504.95 1493.02 1493.18 1489.9 1485.64 1485.2 1483.36 1481.35 1479.13 1479.45 1474.24 1480.68 1469.1 1482.97 1462.5 1484.03 1455.52 1483.41 1452.11 1483.02 1448.71 1481.24 1444.4 1482.3 1439.27 1485.04 1432.97 1485.43 1425.66 1444.3 1423.05 1404.52 1431.05 1407.04 1410.37 1413.8 1391.05 1412.79 1379.72 1423.35 1356.73 1438.32 1334.99 1449.72 1315.17 1454.25 1310.31 1459.39 1311.11 1464.42 1309.7 1467.16 1304.54 1467.88 1298.74 1469.56 1291.37 1472.18 1284.25 1473.52 1276.63 1472.35 1268.98 1468.78 1262.2 1464.31 1258.1 1464.86 1244.21 1457.77 1239.22 1448.49 1220.51 1441.23 1216.29 1434.86 1209.58 1430.62 1199.56 1454.86 1192.44 1477.83 1181.36 1495.82 1175.32 1500.68 1155.41 1509.51 1145.84 1523.36 1139.84 1529.9 1131.36 1534.37 1120.12 1542.75 1111.2 1553.31 1113.42 1556.38 1117.49 1569.96 1108.01 1595.77 1059.94 1598.4 1054.18 1601.53 1048.89 1605.72 1045.51 1610.08 1042.46 1614.43 1035.91 1618.23 1028.69 1675.34 1013.02 1732.83 1005.15 1728.19 1037.89 1744.62 1034 1761.16 1035.15 1765.74 1038.01 1770.38 1040.18 1774.57 1036.52 1778.2 1032.09 1789.15 1024.57 1786.19 991.6 1796.41 979.05 1823.96 969.72 1844.52 991.51 1844.52 1006.08 1851.22 1015.5"/>
      <polygon class="cls-1" points="2479.01 2346.15 2476.34 2351.53 2467.99 2351.36 2461.82 2351.09 2454.21 2352.34 2448.63 2352.02 2442.75 2354.67 2436.29 2355.42 2435.77 2364.71 2440.09 2371.15 2440.8 2378.87 2438.03 2387.66 2425.92 2393.32 2416.13 2384.79 2410.2 2379.88 2405.79 2374.44 2391.62 2389.65 2385.17 2401.76 2383.1 2414.65 2378.71 2417.74 2376.12 2411.25 2369.67 2404.26 2370.2 2410.49 2371.5 2423.92 2367.37 2423.91 2365.55 2419.47 2363.23 2418.42 2357.69 2422.14 2352.42 2425.44 2348.81 2420.99 2344.44 2406.12 2346.25 2392.71 2350.38 2375.69 2351.16 2366.16 2355.64 2357.94 2363.86 2347.72 2371.56 2335.97 2377.21 2296.89 2384.92 2287.31 2395.2 2279.85 2407.94 2274.73 2421.63 2275.26 2432.24 2282.06 2435.26 2296.58 2444.93 2310.02 2457.27 2320.02 2467.05 2332.65 2477.95 2343.78 2479.01 2346.15"/>
    </g>
  </g>
</svg>