<svg width="115" height="41" viewBox="0 0 115 41" fill="none" xmlns="http://www.w3.org/2000/svg">
<g clip-path="url(#clip0_1603_4398)">
<path d="M21.14 12.355V22.675C19.68 24.625 17.93 26.375 15.98 27.835V12.355C15.98 10.925 17.14 9.77502 18.56 9.77502C19.99 9.77502 21.14 10.935 21.14 12.355Z" fill="#4054E7"/>
<path d="M21.14 12.355V22.675C19.68 24.625 17.93 26.375 15.98 27.835V12.355C15.98 10.925 17.14 9.77502 18.56 9.77502C19.99 9.77502 21.14 10.935 21.14 12.355Z" fill="#4054E7"/>
<path d="M21.14 12.355V22.675C19.68 24.625 17.93 26.375 15.98 27.835V12.355C15.98 10.925 17.14 9.77502 18.56 9.77502C19.99 9.77502 21.14 10.935 21.14 12.355Z" fill="#4054E7"/>
<path d="M21.79 3.975C21.79 4.865 21.43 5.675 20.84 6.255L18.56 8.535L17.22 7.195L16.28 6.255C15.69 5.665 15.33 4.865 15.33 3.975C15.33 2.195 16.78 0.744995 18.56 0.744995C20.34 0.744995 21.79 2.195 21.79 3.975Z" fill="#4054E7"/>
<path d="M21.14 12.355V22.675C19.68 24.625 17.93 26.375 15.98 27.835V12.355C15.98 10.925 17.14 9.77502 18.56 9.77502C19.99 9.77502 21.14 10.935 21.14 12.355Z" fill="#4054E7"/>
<path d="M13.4 14.935V20.095H10.82C7.97 20.095 5.66 22.405 5.66 25.255V32.485C4 32.825 2.27 33.005 0.5 33.005V9.775C0.5 8.345 1.65 7.19501 3.08 7.19501C3.8 7.19501 4.44 7.48501 4.91 7.94501C5.37 8.41501 5.66 9.065 5.66 9.775V22.675C5.66 18.395 9.12 14.935 13.4 14.935Z" fill="#4054E7"/>
<path d="M21.14 12.355V22.675C19.68 24.625 17.93 26.375 15.98 27.835V12.355C15.98 10.925 17.14 9.77502 18.56 9.77502C19.99 9.77502 21.14 10.935 21.14 12.355Z" fill="#4054E7"/>
<path d="M31.35 7.19501C32.88 7.19501 34.05 8.515 33.92 10.035C33.12 19.615 28.29 28.045 21.14 33.645C19.53 34.905 17.8 36.015 15.98 36.965C12.81 38.625 9.33 39.785 5.66 40.355C3.98 40.615 2.25 40.745 0.5 40.745V35.585C2.26 35.585 3.99 35.425 5.66 35.115C9.41 34.435 12.91 33.005 15.98 30.995C17.87 29.765 19.61 28.315 21.14 26.675C25.43 22.135 28.23 16.185 28.78 9.595C28.89 8.245 30 7.19501 31.35 7.19501Z" fill="#4054E7"/>
<path d="M53.69 22.745L50.65 18.775H43.43V22.745H37.91V14.375H52.38C53.7 14.375 54.41 13.925 54.41 12.865C54.41 11.805 53.69 11.405 52.38 11.405H37.93L41.54 6.745H51.68C55.29 6.745 60.15 7.825 60.15 12.555C60.15 14.945 58.74 17.055 56.25 17.645C56.68 17.935 57.76 18.885 59.93 21.425L61.08 22.745H53.69Z" fill="#4054E7"/>
<path d="M62.97 22.745V9.505C62.97 7.975 64.21 6.745 65.73 6.745C67.26 6.745 68.49 7.985 68.49 9.505V22.745H62.97Z" fill="#4054E7"/>
<path d="M71.63 22.745V15.545C71.63 14.015 72.87 12.775 74.4 12.775C75.93 12.775 77.17 14.015 77.17 15.545V18.155H82.53C85.04 18.155 86.83 17.225 86.83 14.595C86.83 12.415 84.94 11.415 82.53 11.415H71.62L75.14 6.755H82.53C88.22 6.755 92.34 9.985 92.34 14.595C92.34 19.205 88.18 22.755 82.53 22.755H71.62L71.63 22.745Z" fill="#4054E7"/>
<path d="M99.9 22.745V17.575L90.21 6.745H97.31L100.92 11.125C101.57 11.895 102.4 12.945 102.71 13.515C103.04 12.915 103.81 11.885 104.43 11.125L107.87 6.745H114.81L105.43 17.605V22.745H99.88H99.9Z" fill="#4054E7"/>
<path d="M48.52 30.555C48.52 31.025 48.45 31.455 48.31 31.855C48.17 32.255 47.95 32.585 47.65 32.875C47.35 33.155 46.95 33.385 46.47 33.545C45.99 33.705 45.4 33.785 44.71 33.785H40.5V36.755H37.96V27.365H44.71C45.4 27.365 45.99 27.445 46.47 27.605C46.95 27.765 47.35 27.985 47.65 28.265C47.95 28.545 48.17 28.885 48.31 29.285C48.45 29.685 48.52 30.105 48.52 30.575V30.555ZM45.96 30.605C45.96 30.385 45.93 30.195 45.87 30.045C45.81 29.895 45.71 29.755 45.57 29.655C45.43 29.555 45.24 29.485 45.02 29.435C44.79 29.385 44.51 29.365 44.18 29.365H40.52V31.785H44.18C44.51 31.785 44.79 31.765 45.02 31.725C45.25 31.685 45.43 31.625 45.57 31.525C45.71 31.435 45.81 31.305 45.87 31.155C45.93 31.005 45.96 30.825 45.96 30.605Z" fill="#4054E7"/>
<path d="M57.48 34.965H52.24L51.36 36.745H48.53L53.45 27.355H56.28L61.2 36.745H58.37L57.49 34.965H57.48ZM53.15 33.135H56.58L54.87 29.675L53.15 33.135Z" fill="#4054E7"/>
<path d="M67.66 32.915V36.745H65.13V32.915L60.58 27.355H63.42L66.4 31.135L69.37 27.355H72.21L67.66 32.915Z" fill="#4054E7"/>
<path d="M85.63 32.055C85.63 32.865 85.48 33.575 85.19 34.195C84.89 34.815 84.47 35.325 83.92 35.745C83.37 36.155 82.7 36.475 81.91 36.685C81.12 36.895 80.24 37.005 79.26 37.005C78.28 37.005 77.39 36.895 76.6 36.685C75.81 36.475 75.14 36.155 74.58 35.745C74.02 35.335 73.6 34.815 73.29 34.195C72.98 33.575 72.84 32.865 72.84 32.055C72.84 31.245 72.99 30.535 73.29 29.915C73.59 29.295 74.02 28.785 74.58 28.365C75.14 27.955 75.81 27.635 76.6 27.425C77.39 27.215 78.28 27.105 79.26 27.105C80.24 27.105 81.12 27.215 81.91 27.425C82.7 27.635 83.37 27.955 83.92 28.365C84.47 28.775 84.9 29.295 85.19 29.915C85.49 30.535 85.63 31.245 85.63 32.055ZM83.07 32.055C83.07 31.705 83.01 31.355 82.9 31.005C82.79 30.655 82.59 30.345 82.31 30.065C82.02 29.785 81.64 29.565 81.14 29.385C80.64 29.205 80.02 29.125 79.26 29.125C78.75 29.125 78.3 29.165 77.91 29.245C77.52 29.325 77.19 29.435 76.91 29.575C76.63 29.715 76.39 29.885 76.2 30.075C76.01 30.265 75.86 30.465 75.74 30.685C75.63 30.905 75.55 31.125 75.5 31.365C75.45 31.605 75.43 31.835 75.43 32.055C75.43 32.275 75.45 32.525 75.5 32.755C75.55 32.985 75.63 33.215 75.74 33.435C75.85 33.655 76.01 33.855 76.2 34.035C76.39 34.215 76.63 34.385 76.91 34.525C77.19 34.665 77.53 34.775 77.91 34.855C78.3 34.935 78.75 34.975 79.26 34.975C80.02 34.975 80.65 34.885 81.14 34.715C81.63 34.545 82.02 34.315 82.31 34.035C82.59 33.755 82.79 33.445 82.9 33.095C83.01 32.745 83.07 32.395 83.07 32.045V32.055Z" fill="#4054E7"/>
<path d="M98.47 34.905C98.24 35.315 97.89 35.685 97.42 35.995C96.95 36.305 96.38 36.545 95.68 36.725C94.98 36.905 94.17 36.995 93.24 36.995C92.31 36.995 91.5 36.905 90.8 36.725C90.1 36.545 89.52 36.305 89.05 35.995C88.58 35.685 88.24 35.325 88 34.905C87.76 34.485 87.65 34.045 87.65 33.575V27.345H90.18V32.665C90.18 32.975 90.22 33.275 90.3 33.555C90.38 33.835 90.53 34.085 90.75 34.285C90.97 34.495 91.28 34.665 91.68 34.785C92.08 34.905 92.6 34.965 93.23 34.965C93.86 34.965 94.38 34.905 94.77 34.785C95.16 34.665 95.48 34.495 95.7 34.285C95.92 34.075 96.07 33.835 96.15 33.555C96.23 33.275 96.27 32.975 96.27 32.665V27.345H98.81V33.575C98.81 34.045 98.69 34.485 98.46 34.905H98.47Z" fill="#4054E7"/>
<path d="M106.75 29.395V36.745H104.21V29.395H100.22V27.355H110.73V29.395H106.74H106.75Z" fill="#4054E7"/>
</g>
<defs>
<clipPath id="clip0_1603_4398">
<rect width="115" height="41" fill="white"/>
</clipPath>
</defs>
</svg>
