<svg width="115" height="41" viewBox="0 0 115 41" fill="none" xmlns="http://www.w3.org/2000/svg">
<g clip-path="url(#clip0_1603_4477)">
<path d="M21.14 11.865V22.185C19.68 24.135 17.93 25.885 15.98 27.345V11.865C15.98 10.435 17.14 9.28503 18.56 9.28503C19.99 9.28503 21.14 10.445 21.14 11.865Z" fill="#4054E7"/>
<path d="M21.14 11.865V22.185C19.68 24.135 17.93 25.885 15.98 27.345V11.865C15.98 10.435 17.14 9.28503 18.56 9.28503C19.99 9.28503 21.14 10.445 21.14 11.865Z" fill="#4054E7"/>
<path d="M21.14 11.865V22.185C19.68 24.135 17.93 25.885 15.98 27.345V11.865C15.98 10.435 17.14 9.28503 18.56 9.28503C19.99 9.28503 21.14 10.445 21.14 11.865Z" fill="#4054E7"/>
<path d="M21.79 3.47501C21.79 4.36501 21.43 5.175 20.84 5.755L18.56 8.035L17.22 6.69501L16.28 5.755C15.69 5.165 15.33 4.36501 15.33 3.47501C15.33 1.69501 16.78 0.244995 18.56 0.244995C20.34 0.244995 21.79 1.69501 21.79 3.47501Z" fill="#4054E7"/>
<path d="M21.14 11.865V22.185C19.68 24.135 17.93 25.885 15.98 27.345V11.865C15.98 10.435 17.14 9.28503 18.56 9.28503C19.99 9.28503 21.14 10.445 21.14 11.865Z" fill="#4054E7"/>
<path d="M13.4 14.445V19.605H10.82C7.97 19.605 5.66 21.915 5.66 24.765V31.995C4 32.335 2.27 32.515 0.5 32.515V9.28497C0.5 7.85497 1.65 6.70496 3.08 6.70496C3.8 6.70496 4.44 6.99496 4.91 7.45496C5.37 7.92496 5.66 8.57497 5.66 9.28497V22.185C5.66 17.905 9.12 14.445 13.4 14.445Z" fill="#4054E7"/>
<path d="M21.14 11.865V22.185C19.68 24.135 17.93 25.885 15.98 27.345V11.865C15.98 10.435 17.14 9.28503 18.56 9.28503C19.99 9.28503 21.14 10.445 21.14 11.865Z" fill="#4054E7"/>
<path d="M31.35 6.70496C32.88 6.70496 34.05 8.02495 33.92 9.54495C33.12 19.125 28.29 27.555 21.14 33.155C19.53 34.415 17.8 35.525 15.98 36.475C12.81 38.135 9.33 39.295 5.66 39.865C3.98 40.125 2.25 40.255 0.5 40.255V35.095C2.26 35.095 3.99 34.935 5.66 34.625C9.41 33.945 12.91 32.515 15.98 30.505C17.87 29.275 19.61 27.825 21.14 26.185C25.43 21.645 28.23 15.695 28.78 9.10498C28.89 7.75498 30 6.70496 31.35 6.70496Z" fill="#4054E7"/>
<path d="M53.69 22.255L50.65 18.285H43.43V22.255H37.91V13.885H52.38C53.7 13.885 54.41 13.435 54.41 12.375C54.41 11.315 53.69 10.915 52.38 10.915H37.93L41.54 6.255H51.68C55.29 6.255 60.15 7.335 60.15 12.065C60.15 14.455 58.74 16.565 56.25 17.155C56.68 17.445 57.76 18.395 59.93 20.935L61.08 22.255H53.69Z" fill="#4054E7"/>
<path d="M62.97 22.255V9.01499C62.97 7.48499 64.21 6.255 65.73 6.255C67.26 6.255 68.49 7.49499 68.49 9.01499V22.255H62.97Z" fill="#4054E7"/>
<path d="M71.63 22.255V15.055C71.63 13.525 72.87 12.285 74.4 12.285C75.93 12.285 77.17 13.525 77.17 15.055V17.665H82.53C85.04 17.665 86.83 16.735 86.83 14.105C86.83 11.925 84.94 10.925 82.53 10.925H71.62L75.14 6.26501H82.53C88.22 6.26501 92.34 9.49504 92.34 14.105C92.34 18.715 88.18 22.265 82.53 22.265H71.62L71.63 22.255Z" fill="#4054E7"/>
<path d="M99.9 22.255V17.085L90.21 6.255H97.31L100.92 10.635C101.57 11.405 102.4 12.455 102.71 13.025C103.04 12.425 103.81 11.395 104.43 10.635L107.87 6.255H114.81L105.43 17.115V22.255H99.88H99.9Z" fill="#4054E7"/>
<path d="M42 38.255H39.46V28.865H45.82C46.5 28.865 47.08 28.935 47.56 29.075C48.04 29.215 48.42 29.415 48.72 29.675C49.02 29.935 49.23 30.245 49.37 30.615C49.5 30.985 49.57 31.395 49.57 31.845C49.57 32.245 49.51 32.585 49.4 32.885C49.29 33.185 49.14 33.435 48.95 33.645C48.76 33.855 48.54 34.035 48.29 34.185C48.04 34.335 47.78 34.455 47.5 34.545L50.58 38.255H47.61L44.77 34.795H42V38.255ZM47.01 31.825C47.01 31.645 46.99 31.485 46.94 31.365C46.89 31.235 46.81 31.135 46.69 31.055C46.57 30.975 46.41 30.915 46.22 30.885C46.02 30.845 45.77 30.835 45.48 30.835H42.01V32.845H45.48C45.78 32.845 46.02 32.825 46.22 32.795C46.42 32.755 46.58 32.705 46.69 32.625C46.81 32.545 46.89 32.445 46.94 32.315C46.99 32.185 47.01 32.035 47.01 31.855V31.825Z" fill="#4054E7"/>
<path d="M52.19 38.255V28.865H61.7V30.865H54.8V32.415H61.35V34.415H54.8V36.245H61.8V38.245H52.2L52.19 38.255Z" fill="#4054E7"/>
<path d="M72.9 38.255L66.56 31.805V38.255H64.02V28.865H66.77L73.11 35.345V28.865H75.63V38.255H72.88H72.9Z" fill="#4054E7"/>
<path d="M83.65 30.905V38.255H81.11V30.905H77.12V28.865H87.63V30.905H83.64H83.65Z" fill="#4054E7"/>
<path d="M96.1 36.475H90.86L89.98 38.255H87.15L92.07 28.865H94.9L99.82 38.255H96.99L96.11 36.475H96.1ZM91.78 34.645H95.21L93.5 31.185L91.78 34.645Z" fill="#4054E7"/>
<path d="M101.14 38.255V28.865H103.68V36.195H110.54V38.255H101.15H101.14Z" fill="#4054E7"/>
</g>
<defs>
<clipPath id="clip0_1603_4477">
<rect width="115" height="41" fill="white"/>
</clipPath>
</defs>
</svg>
