<svg width="115" height="41" viewBox="0 0 115 41" fill="none" xmlns="http://www.w3.org/2000/svg">
<g clip-path="url(#clip0_1786_30359)">
<path d="M21.14 11.865V22.185C19.68 24.135 17.93 25.885 15.98 27.345V11.865C15.98 10.435 17.14 9.28503 18.56 9.28503C19.99 9.28503 21.14 10.445 21.14 11.865Z" fill="#4054E7"/>
<path d="M21.14 11.865V22.185C19.68 24.135 17.93 25.885 15.98 27.345V11.865C15.98 10.435 17.14 9.28503 18.56 9.28503C19.99 9.28503 21.14 10.445 21.14 11.865Z" fill="#4054E7"/>
<path d="M21.14 11.865V22.185C19.68 24.135 17.93 25.885 15.98 27.345V11.865C15.98 10.435 17.14 9.28503 18.56 9.28503C19.99 9.28503 21.14 10.445 21.14 11.865Z" fill="#4054E7"/>
<path d="M21.79 3.47501C21.79 4.36501 21.43 5.175 20.84 5.755L18.56 8.035L17.22 6.69501L16.28 5.755C15.69 5.165 15.33 4.36501 15.33 3.47501C15.33 1.69501 16.78 0.244995 18.56 0.244995C20.34 0.244995 21.79 1.69501 21.79 3.47501Z" fill="#4054E7"/>
<path d="M21.14 11.865V22.185C19.68 24.135 17.93 25.885 15.98 27.345V11.865C15.98 10.435 17.14 9.28503 18.56 9.28503C19.99 9.28503 21.14 10.445 21.14 11.865Z" fill="#4054E7"/>
<path d="M13.4 14.445V19.605H10.82C7.97 19.605 5.66 21.915 5.66 24.765V31.995C4 32.335 2.27 32.515 0.5 32.515V9.28497C0.5 7.85497 1.65 6.70496 3.08 6.70496C3.8 6.70496 4.44 6.99496 4.91 7.45496C5.37 7.92496 5.66 8.57497 5.66 9.28497V22.185C5.66 17.905 9.12 14.445 13.4 14.445Z" fill="#4054E7"/>
<path d="M21.14 11.865V22.185C19.68 24.135 17.93 25.885 15.98 27.345V11.865C15.98 10.435 17.14 9.28503 18.56 9.28503C19.99 9.28503 21.14 10.445 21.14 11.865Z" fill="#4054E7"/>
<path d="M31.35 6.70496C32.88 6.70496 34.05 8.02495 33.92 9.54495C33.12 19.125 28.29 27.555 21.14 33.155C19.53 34.415 17.8 35.525 15.98 36.475C12.81 38.135 9.33 39.295 5.66 39.865C3.98 40.125 2.25 40.255 0.5 40.255V35.095C2.26 35.095 3.99 34.935 5.66 34.625C9.41 33.945 12.91 32.515 15.98 30.505C17.87 29.275 19.61 27.825 21.14 26.185C25.43 21.645 28.23 15.695 28.78 9.10498C28.89 7.75498 30 6.70496 31.35 6.70496Z" fill="#4054E7"/>
<path d="M53.69 22.255L50.65 18.285H43.43V22.255H37.91V13.885H52.38C53.7 13.885 54.41 13.435 54.41 12.375C54.41 11.315 53.69 10.915 52.38 10.915H37.93L41.54 6.255H51.68C55.29 6.255 60.15 7.335 60.15 12.065C60.15 14.455 58.74 16.565 56.25 17.155C56.68 17.445 57.76 18.395 59.93 20.935L61.08 22.255H53.69Z" fill="#4054E7"/>
<path d="M62.97 22.255V9.01499C62.97 7.48499 64.21 6.255 65.73 6.255C67.26 6.255 68.49 7.49499 68.49 9.01499V22.255H62.97Z" fill="#4054E7"/>
<path d="M71.63 22.255V15.055C71.63 13.525 72.87 12.285 74.4 12.285C75.93 12.285 77.17 13.525 77.17 15.055V17.665H82.53C85.04 17.665 86.83 16.735 86.83 14.105C86.83 11.925 84.94 10.925 82.53 10.925H71.62L75.14 6.26501H82.53C88.22 6.26501 92.34 9.49504 92.34 14.105C92.34 18.715 88.18 22.265 82.53 22.265H71.62L71.63 22.255Z" fill="#4054E7"/>
<path d="M99.9 22.255V17.085L90.21 6.255H97.31L100.92 10.635C101.57 11.405 102.4 12.455 102.71 13.025C103.04 12.425 103.81 11.395 104.43 10.635L107.87 6.255H114.81L105.43 17.115V22.255H99.88H99.9Z" fill="#4054E7"/>
<path d="M38 31.2023H39.3428C39.4088 31.4435 39.5849 31.5971 39.827 31.6848C40.0692 31.7725 40.4214 31.7944 40.9057 31.7944C41.4119 31.7944 41.7862 31.7506 42.0283 31.6848C42.2704 31.619 42.3805 31.4874 42.3805 31.3119C42.3805 31.0707 42.1604 30.9391 41.6981 30.9171C41.2358 30.8952 40.7516 30.8733 40.2233 30.8294C39.695 30.7855 39.1887 30.6978 38.7484 30.5223C38.2862 30.3469 38.066 29.9959 38.066 29.4695C38.066 28.9431 38.3302 28.5922 38.8145 28.3509C39.2987 28.1316 39.9811 28.0219 40.8616 28.0219C41.7421 28.0219 42.4025 28.1316 42.8648 28.3729C43.327 28.6141 43.5912 28.987 43.6572 29.5134H42.3145C42.2704 29.2941 42.1164 29.1625 41.8742 29.0747C41.6321 29.0089 41.2799 28.9651 40.8616 28.9651C40.3333 28.9651 39.9811 28.987 39.761 29.0528C39.5409 29.1186 39.4308 29.2502 39.4308 29.4257C39.4308 29.6669 39.6509 29.7766 40.1132 29.7985C40.5755 29.8205 41.0597 29.8424 41.5881 29.8863C42.1164 29.9301 42.6226 30.0179 43.0629 30.1933C43.5031 30.3688 43.7453 30.6978 43.7453 31.2023C43.7453 31.7067 43.5252 32.1234 43.0629 32.3647C42.6006 32.606 41.8962 32.7156 40.9277 32.7156C40.4214 32.7156 40.0031 32.6937 39.6509 32.6279C39.2987 32.5621 39.0126 32.4744 38.7704 32.3428C38.5503 32.2112 38.3742 32.0576 38.2421 31.8602C38.1101 31.6628 38.044 31.4435 38.022 31.1803L38 31.2023Z" fill="#4054E7"/>
<path d="M44.4717 28.1097H49.2924V29.0747H45.7924V29.8643H48.456V30.7855H45.7924V31.6628H49.3145V32.6279H44.4717V28.1097Z" fill="#4054E7"/>
<path d="M50.1289 28.1097H53.9591C54.4874 28.1097 54.9057 28.2413 55.2138 28.4825C55.522 28.7238 55.6541 29.0967 55.6541 29.5792C55.6541 29.9521 55.566 30.2372 55.3899 30.4784C55.2138 30.7197 54.9717 30.8952 54.6635 30.9829L55.7862 32.6498H54.2673L53.2107 31.1145H51.4277V32.6498H50.0849V28.1097H50.1289ZM54.3113 29.645V29.5353C54.3113 29.3818 54.2673 29.2721 54.1792 29.1625C54.0912 29.0747 53.9151 29.0309 53.695 29.0309H51.4717V30.1495H53.695C53.9371 30.1495 54.0912 30.1056 54.1792 30.0179C54.2673 29.9301 54.3113 29.7985 54.3113 29.645Z" fill="#4054E7"/>
<path d="M55.8082 28.1097H57.261L59.1101 31.7286L60.9591 28.1097H62.2359L59.8805 32.6498H58.1415L55.8082 28.1097Z" fill="#4054E7"/>
<path d="M62.6981 28.1097H64.0409V32.6498H62.6981V28.1097Z" fill="#4054E7"/>
<path d="M64.8113 30.3907C64.8113 29.9521 64.8774 29.5792 65.0314 29.2721C65.1635 28.9651 65.3836 28.7238 65.6258 28.5264C65.8679 28.329 66.2201 28.1974 66.5943 28.1316C66.9686 28.0439 67.4088 28 67.8931 28C68.7736 28 69.478 28.1316 70.0063 28.3729C70.5346 28.6361 70.8208 29.0747 70.8868 29.7108H69.544C69.478 29.4257 69.3019 29.2283 69.0377 29.1186C68.7516 29.0309 68.3774 28.987 67.8931 28.987C67.6289 28.987 67.4088 28.987 67.1887 29.0309C66.9686 29.0528 66.7925 29.1186 66.6384 29.2063C66.4843 29.2941 66.3742 29.4037 66.2862 29.5573C66.1981 29.7108 66.1541 29.9082 66.1541 30.1495V30.5004C66.1541 30.7416 66.1981 30.939 66.2862 31.0926C66.3742 31.2461 66.4843 31.3558 66.6384 31.4435C66.7925 31.5312 66.9686 31.597 67.1887 31.619C67.4088 31.6409 67.6509 31.6628 67.8931 31.6628C68.3553 31.6628 68.7296 31.619 68.9937 31.5312C69.2799 31.4435 69.456 31.268 69.544 31.0048H70.8868C70.7987 31.597 70.4906 32.0138 69.9843 32.277C69.456 32.5182 68.7516 32.6498 67.8711 32.6498C67.3868 32.6498 66.9686 32.606 66.5723 32.5402C66.1761 32.4524 65.8679 32.3428 65.6038 32.1454C65.3396 31.948 65.1415 31.7286 65.0094 31.4216C64.8774 31.1145 64.7893 30.7416 64.7893 30.303L64.8113 30.3907Z" fill="#4054E7"/>
<path d="M71.6132 28.1097H76.434V29.0747H72.934V29.8643H75.5975V30.7855H72.934V31.6628H76.456V32.6279H71.6132V28.1097Z" fill="#4054E7"/>
<path d="M78.6792 30.3907C78.6792 29.9521 78.7453 29.5792 78.8994 29.2721C79.0314 28.9651 79.2516 28.7238 79.4937 28.5264C79.7358 28.329 80.088 28.1974 80.4623 28.1316C80.8365 28.0439 81.2767 28 81.761 28C82.6415 28 83.3459 28.1316 83.8742 28.3729C84.4025 28.6361 84.6887 29.0747 84.7547 29.7108H83.4119C83.3459 29.4257 83.1698 29.2283 82.9057 29.1186C82.6195 29.0309 82.2453 28.987 81.761 28.987C81.4968 28.987 81.2767 28.987 81.0566 29.0309C80.8365 29.0528 80.6604 29.1186 80.5063 29.2063C80.3522 29.2941 80.2421 29.4037 80.1541 29.5573C80.066 29.7108 80.022 29.9082 80.022 30.1495V30.5004C80.022 30.7416 80.066 30.939 80.1541 31.0926C80.2421 31.2461 80.3522 31.3558 80.5063 31.4435C80.6604 31.5312 80.8365 31.597 81.0566 31.619C81.2767 31.6409 81.5189 31.6628 81.761 31.6628C82.2233 31.6628 82.5975 31.619 82.8616 31.5312C83.1478 31.4435 83.3239 31.268 83.4119 31.0048H84.7547C84.6667 31.597 84.3585 32.0138 83.8522 32.277C83.3239 32.5182 82.6195 32.6498 81.739 32.6498C81.2547 32.6498 80.8365 32.606 80.4402 32.5402C80.044 32.4524 79.7358 32.3428 79.4717 32.1454C79.2075 31.948 79.0094 31.7286 78.8774 31.4216C78.7453 31.1145 78.6572 30.7416 78.6572 30.303L78.6792 30.3907Z" fill="#4054E7"/>
<path d="M85.4591 28.1097H90.2799V29.0747H86.7799V29.8643H89.4434V30.7855H86.7799V31.6628H90.3019V32.6279H85.4591V28.1097Z" fill="#4054E7"/>
<path d="M94.9685 32.6498L92.305 29.2941V32.6498H91.0943V28.1097H92.9214L95.5849 31.4654V28.1097H96.7956V32.6498H94.9685Z" fill="#4054E7"/>
<path d="M99.5692 29.1625H97.412V28.1097H103.069V29.1625H100.912V32.6498H99.5692V29.1625Z" fill="#4054E7"/>
<path d="M103.708 28.1097H108.528V29.0747H105.028V29.8643H107.692V30.7855H105.028V31.6628H108.55V32.6279H103.708V28.1097Z" fill="#4054E7"/>
<path d="M109.343 28.1097H113.173C113.701 28.1097 114.119 28.2413 114.428 28.4825C114.736 28.7238 114.868 29.0967 114.868 29.5792C114.868 29.9521 114.78 30.2372 114.604 30.4784C114.428 30.7197 114.186 30.8952 113.877 30.9829L115 32.6498H113.481L112.425 31.1145H110.642V32.6498H109.299V28.1097H109.343ZM113.525 29.645V29.5353C113.525 29.3818 113.481 29.2721 113.393 29.1625C113.305 29.0747 113.129 29.0309 112.909 29.0309H110.686V30.1495H112.909C113.151 30.1495 113.305 30.1056 113.393 30.0179C113.481 29.9301 113.525 29.7985 113.525 29.645Z" fill="#4054E7"/>
</g>
<defs>
<clipPath id="clip0_1786_30359">
<rect width="115" height="41" fill="white"/>
</clipPath>
</defs>
</svg>
